<svg id="Layer_1" data-name="Layer 1"
    xmlns="http://www.w3.org/2000/svg" viewBox="0 0 432 432">
    <defs>
        <style>.cls-1{fill:#3b39e2;}.cls-2{fill:#3b39e2;}</style>
    </defs>
    <path class="cls-1" d="M91.52,73.15H340.46a10.7,10.7,0,0,1,3.18,5.28c2.58,7.94,5.28,15.83,7.91,23.75,2,6,2,6,8.34,6,4.17,0,5.69,1.47,5.69,5.55,0,15.38.07,30.77,0,46.15a31.76,31.76,0,0,1-8.69,22,7.55,7.55,0,0,0-2.13,5.67q.09,76.53,0,153.07c0,5.32,0,5.32,5.43,5.4,3.78.06,5.34,1.57,5.37,5.29,0,4.68,0,9.35,0,14,0,6-1,7-6.89,7q-142.54,0-285.09,0c-2.79,0-5.22-.35-7.22-2.39V348.38c2.27-2.64,5.34-2.52,8.37-2.31,1.78.12,2.48-.26,2.48-2.3q-.1-78.81,0-157.61a4.71,4.71,0,0,0-1.52-3.57,33,33,0,0,1-8.36-15.1c-.22-.86.08-2-1-2.6V111.13a5.74,5.74,0,0,1,6.1-2.94c1.05.12,2.15-.1,3.19,0,2.07.29,3-.51,3.63-2.53,2.94-9.22,6.13-18.35,9.12-27.56A10.35,10.35,0,0,1,91.52,73.15Zm153.4,103.29c-13.34,21.73-44,22.25-58-.08-6.85,10.58-16.43,16.54-29.11,16.52s-22.13-6.08-29-16.61c-9.11,14.74-25.6,19.67-39.68,14.9-3.13-1.06-3.14-1-3.14,2.2V343a11.84,11.84,0,0,1,0,1.46c-.16,1.26.34,1.69,1.62,1.66a91.35,91.35,0,0,1,9.93,0c2.67.22,3.11-.72,3.1-3.19q-.14-42.21-.05-84.43c0-4.55,1.4-5.94,5.9-5.94q27.16,0,54.34,0c6,0,7,1,7,6.92,0,27.75.05,55.51-.08,83.26,0,2.93.82,3.38,3.51,3.38q85.75-.14,171.5,0c2.53,0,3.35-.47,3.35-3.23q-.15-74.64-.07-149.29v-3.36c-17.9,6.21-32.12,1.49-42.92-13.73C289.08,198.67,258,198.19,244.92,176.44Zm-29.1-68.23q62.79,0,125.58.05c2.49,0,2.86-.49,2-2.83-2.53-7.13-4.87-14.34-7.17-21.54-.5-1.57-1.23-2-2.86-2Q216,82,98.6,81.87c-1.86,0-2.46.75-2.95,2.27-2.28,7-4.56,14-7,21-.87,2.44-.75,3.17,2.2,3.17Q153.32,108.12,215.82,108.21ZM216,117H78.66a12.77,12.77,0,0,1-1.75,0c-1.42-.2-1.82.38-1.78,1.78a85.92,85.92,0,0,1,0,9.63c-.23,2.72.7,3.26,3.3,3.26q137.59-.1,275.2-.06a10.15,10.15,0,0,1,1.46,0c1.42.21,1.83-.38,1.78-1.77-.09-3.31-.21-6.64,0-9.93.19-2.49-.62-3-3-3Q284.91,117,216,117ZM159,303.7c0-13.24-.05-26.48.05-39.71,0-2.13-.42-2.75-2.66-2.73q-22.2.18-44.39,0c-2.16,0-2.71.48-2.7,2.69q.12,39.71,0,79.42c0,2.13.42,2.75,2.67,2.73q22.19-.17,44.38,0c2.16,0,2.73-.48,2.71-2.69C158.94,330.17,159,316.94,159,303.7Zm57,51.12H80.73c-5.57,0-5.42,0-5.64,5.53-.1,2.65.64,3.29,3.28,3.29q136.44-.12,272.87-.07c5.58,0,5.42,0,5.64-5.53.11-2.65-.63-3.29-3.28-3.29Q284.8,354.89,216,354.82ZM158.15,140.36H135.4c-1.2,0-2.29-.2-2.22,1.69.22,6.8-.37,13.62.32,20.4a24.56,24.56,0,0,0,48.64,1c1.05-7.24.24-14.56.46-21.84.06-1.9-1.38-1.25-2.27-1.26C172.94,140.34,165.55,140.36,158.15,140.36Zm116,0c-7.59,0-15.17,0-22.76,0-1.37,0-2.1.15-2.07,1.84.12,6.13-.15,12.27.13,18.38a24.62,24.62,0,0,0,23.92,23.6,24.33,24.33,0,0,0,25.12-22.53c.5-6.29.12-12.64.31-19,.07-2-.67-2.38-2.48-2.35C288.94,140.41,281.55,140.36,274.16,140.36Zm-58.13,0c-7.4,0-14.8.08-22.2-.06-2.1,0-2.56.59-2.5,2.59.14,5.74,0,11.49.09,17.23A24.54,24.54,0,0,0,240,164.53c1.46-7.59.33-15.34.59-23,.06-1.71-1.25-1.13-2.07-1.13C231,140.34,223.53,140.36,216,140.36Zm-116.07,0c-7.58,0-15.17,0-22.75,0-1.26,0-2.14-.05-2.1,1.77.14,6.31-.13,12.64.14,18.95.54,12.75,11.53,23,24.38,23.11a24.45,24.45,0,0,0,24.67-23c.27-6,0-12.05.18-18.08.06-2.09-.35-2.81-2.64-2.75C114.55,140.47,107.26,140.36,100,140.36Zm232.44,0c-7.59,0-15.19,0-22.79,0-1.63,0-2.14.4-2.11,2.08.13,6.23-.09,12.47.17,18.7a24.53,24.53,0,0,0,48.61,3c1.24-7.14.23-14.38.57-21.57.09-1.84-.46-2.26-2.24-2.23C347.21,140.42,339.8,140.36,332.4,140.36Z"/>
    <path class="cls-2" d="M256.74,319.76H188.67c-5,0-6.29-1.26-6.29-6.14q0-47,0-94.08c0-4.89,1.31-6.14,6.29-6.14H325.11c5,0,6.3,1.26,6.3,6.15q0,47,0,94.07c0,4.88-1.33,6.14-6.3,6.15Zm.15-97.59c-21,0-42.06,0-63.09-.06-2.19,0-2.7.52-2.69,2.7q.13,33,0,66c0,2.2.54,2.69,2.7,2.68q63.09-.11,126.17,0c2.19,0,2.7-.51,2.69-2.7q-.14-33,0-66c0-2.2-.55-2.7-2.71-2.69C298.94,222.2,277.91,222.17,256.89,222.17Zm0,80.06H197c-5.86,0-5.71,0-5.91,5.85-.09,2.5.66,3,3,3q61.17-.12,122.35-.06c6.18,0,6,0,6.2-6.15.06-2.26-.63-2.66-2.74-2.65C298.92,302.26,277.9,302.23,256.87,302.23Z"/>
    <path class="cls-2" d="M150.23,305.2c0,1.95.1,3.9,0,5.83-.17,2.71-2.05,4.54-4.41,4.5a4.32,4.32,0,0,1-4.25-4.32c-.14-4-.15-8,0-12a4.06,4.06,0,0,1,4.36-4.12c2.44,0,4,1.55,4.3,4.23a5.83,5.83,0,0,1,0,.59c0,1.75,0,3.5,0,5.25Z"/>
    <path class="cls-1" d="M253.18,276.74a4.34,4.34,0,0,1-2.82-7.6q6.27-6.31,12.56-12.59c1.72-1.72,3.4-3.48,5.17-5.15,2-1.9,4.47-2,6.27-.33a4.38,4.38,0,0,1-.08,6.48c-5.86,6-11.8,11.84-17.71,17.75A4.63,4.63,0,0,1,253.18,276.74Z"/>
    <path class="cls-1" d="M257.49,244a5,5,0,0,1-1.72,2.91c-3.31,3.3-6.58,6.64-9.92,9.9-2.22,2.16-4.9,2.27-6.71.4s-1.62-4.39.44-6.49c3.4-3.47,6.87-6.88,10.31-10.33a4.27,4.27,0,0,1,5.09-1C256.59,240.09,257.49,241.48,257.49,244Z"/>
</svg>