<svg width="171" height="170" viewBox="0 0 171 170" fill="none" xmlns="http://www.w3.org/2000/svg">
<path d="M115.918 104.006C111.913 104.006 107.999 105.193 104.67 107.419C101.341 109.644 98.7462 112.806 97.2147 116.506C95.6832 120.206 95.2835 124.277 96.0662 128.204C96.8488 132.131 98.7786 135.738 101.611 138.568C104.444 141.398 108.053 143.324 111.981 144.103C115.908 144.882 119.979 144.478 123.677 142.943C127.376 141.408 130.536 138.81 132.758 135.479C134.979 132.148 136.163 128.232 136.159 124.228C136.158 121.571 135.634 118.941 134.616 116.486C133.598 114.032 132.106 111.803 130.227 109.925C128.347 108.047 126.116 106.558 123.661 105.542C121.206 104.527 118.575 104.005 115.918 104.006ZM117.556 111.492L122.413 113.916L114.662 116.192L117.556 111.492ZM108.676 114.23L113.533 116.653L105.782 118.93L108.676 114.23ZM104.389 126.083L106.008 119.803L113.857 117.448L119.401 136.983L104.389 126.083ZM120.451 136.679L114.946 117.134L122.796 114.799L127.437 119.214L120.451 136.679Z" fill="#8000FF"/>
<path d="M85.5 5.66425e-07C68.6882 6.78433e-07 52.2539 4.98541 38.2755 14.3258C24.2972 23.6661 13.4025 36.9419 6.96934 52.4742C0.53618 68.0064 -1.14653 85.0976 2.13401 101.586C5.41454 118.075 13.511 133.22 25.3994 145.108C37.2879 156.995 52.4343 165.089 68.9234 168.368C85.4124 171.647 102.503 169.962 118.035 163.527C133.566 157.092 146.841 146.196 156.18 132.216C165.518 118.237 170.502 101.802 170.5 84.9902C170.5 73.8283 168.301 62.7757 164.03 52.4636C159.758 42.1515 153.497 32.7818 145.603 24.8896C137.71 16.9974 128.34 10.7373 118.027 6.46667C107.715 2.19609 96.6619 -0.00128804 85.5 5.66425e-07ZM53.4938 35.4011H39.4825L41.8962 30.299H75.4233L73.0095 35.4011H65.1601C66.7853 36.9967 67.8842 39.0508 68.3097 41.2882H75.384L72.9703 46.4002H68.1233C67.5894 48.5892 66.4019 50.5639 64.7185 52.0616C61.2746 55.172 56.0743 56.2513 51.9631 56.5751L72.205 76.9347H65.0129L43.3484 55.1524V51.6692C49.6868 51.7771 57.5265 51.7182 61.3335 48.2645C61.9174 47.7373 62.3967 47.1049 62.7464 46.4002H39.4825L41.8962 41.2882H63.0701C61.8437 37.9816 57.605 36.1076 53.4938 35.4011ZM30.1122 117.458L17.0232 119.95L31.6526 76.9641L65.6409 110.756L49.2256 113.817C49.2256 113.817 54.0433 135.089 82.1346 137.287C45.3892 154.35 30.1122 117.458 30.1122 117.458ZM115.21 149.523C110.091 149.523 105.087 148.005 100.831 145.161C96.5748 142.317 93.2572 138.276 91.2979 133.547C89.3385 128.817 88.8253 123.614 89.8233 118.593C90.8212 113.572 93.2854 108.96 96.9043 105.34C100.523 101.72 105.134 99.2537 110.155 98.2539C115.175 97.2541 120.379 97.7653 125.109 99.7228C129.839 101.68 133.882 104.996 136.727 109.252C139.572 113.507 141.092 118.51 141.094 123.629C141.095 127.029 140.427 130.396 139.126 133.537C137.826 136.679 135.92 139.533 133.516 141.938C131.113 144.343 128.259 146.25 125.118 147.551C121.977 148.853 118.61 149.523 115.21 149.523ZM138.042 95.273L106.311 59.3126L122.854 57.3011C122.854 57.3011 119.449 35.7151 91.5637 31.7217C129.388 17.1413 142.203 54.9463 142.203 54.9463L155.468 53.3372L138.042 95.273Z" fill="#8000FF"/>
</svg>
