<svg width="56" height="56" viewBox="0 0 56 56" fill="none" xmlns="http://www.w3.org/2000/svg">
<circle cx="28" cy="28" r="27.5" stroke="white"/>
<path d="M23.5375 37.7781C25.385 37.7897 27.2164 37.4344 28.9255 36.7328C30.6346 36.0311 32.1874 34.9971 33.4938 33.6907C34.8002 32.3843 35.8343 30.8315 36.5359 29.1224C37.2376 27.4133 37.5929 25.5819 37.5813 23.7344V23.0891C38.5389 22.3874 39.3678 21.5252 40.0312 20.5406C39.1295 20.935 38.1753 21.1966 37.1984 21.3172C38.2341 20.7001 39.0112 19.7287 39.3859 18.5828C38.4207 19.1619 37.3623 19.569 36.2578 19.7859C35.514 18.9934 34.5297 18.468 33.4572 18.2912C32.3848 18.1144 31.2839 18.2959 30.325 18.8077C29.3661 19.3196 28.6026 20.1331 28.1527 21.1226C27.7027 22.112 27.5914 23.2222 27.8359 24.2813C25.8738 24.1849 23.9539 23.6764 22.2013 22.7888C20.4488 21.9012 18.9028 20.6545 17.6641 19.1297C17.0394 20.2138 16.8501 21.4947 17.1344 22.7132C17.4187 23.9316 18.1554 24.9965 19.1953 25.6922C18.4282 25.6626 17.6788 25.4528 17.0078 25.0797V25.1344C17.001 26.2673 17.3827 27.3684 18.0892 28.254C18.7957 29.1397 19.7845 29.7565 20.8906 30.0016C20.1771 30.1935 19.4297 30.2234 18.7031 30.0891C19.0234 31.0553 19.6347 31.8988 20.4532 32.5038C21.2717 33.1089 22.2574 33.446 23.275 33.4688C21.5351 34.8693 19.3726 35.6403 17.1391 35.6563C16.7474 35.6449 16.3568 35.6121 15.9688 35.5578C18.2295 36.9982 20.8569 37.7576 23.5375 37.7453" fill="white"/>
</svg>
