<svg width="171" height="170" viewBox="0 0 171 170" fill="none" xmlns="http://www.w3.org/2000/svg">
<circle cx="85.5" cy="85" r="85" fill="white"/>
<path d="M85.5 0C68.6886 0 52.2547 4.98516 38.2766 14.3251C24.2984 23.665 13.4037 36.9402 6.97028 52.4719C0.536834 68.0036 -1.14646 85.0943 2.13329 101.583C5.41303 118.071 13.5085 133.217 25.3959 145.104C37.2834 156.992 52.429 165.087 68.9174 168.367C85.4057 171.646 102.496 169.963 118.028 163.53C133.56 157.096 146.835 146.202 156.175 132.223C165.515 118.245 170.5 101.811 170.5 85C170.5 62.4566 161.545 40.8365 145.604 24.8959C129.664 8.95533 108.043 0 85.5 0ZM59.3002 45.7002H72.4001C72.4001 42.2259 73.7803 38.8939 76.237 36.4372C78.6937 33.9805 82.0257 32.6003 85.5 32.6003C88.9743 32.6003 92.3063 33.9805 94.7631 36.4372C97.2198 38.8939 98.5999 42.2259 98.5999 45.7002H111.7V58.8001H59.3002V45.7002ZM131.345 137.431H39.6143V45.7002H52.7245V65.3553H118.214V45.7208H131.314L131.345 137.431Z" fill="#8000FF"/>
<path d="M82.4704 104.913L68.5563 91.0096L59.3008 100.275L77.8324 118.797L82.4704 123.435L118.152 87.732L108.897 78.4766L82.4704 104.913Z" fill="#8000FF"/>
</svg>
