<svg width="84" height="84" viewBox="0 0 84 84" fill="none" xmlns="http://www.w3.org/2000/svg">
<path d="M25.4351 47.8858C21.575 48.9263 17.8291 49.9522 14.0744 50.937C13.5615 51.0689 13.5908 51.3562 13.5762 51.7343C13.5296 53.3267 12.9176 54.8505 11.8498 56.0328C10.7821 57.2151 9.32827 57.9787 7.74881 58.1868C6.16936 58.3949 4.56742 58.0339 3.22987 57.1685C1.89232 56.3031 0.906534 54.9898 0.449064 53.4638C-0.00840619 51.9378 0.0923188 50.2988 0.733198 48.8403C1.37408 47.3817 2.51325 46.199 3.9467 45.5039C5.38015 44.8088 7.01424 44.6467 8.55633 45.0466C10.0984 45.4465 11.4478 46.3824 12.3627 47.6865C12.5239 47.9151 12.6558 48.1555 12.8669 48.4574L24.7024 45.2713C23.8084 39.7669 25.1039 34.8867 28.5655 30.6719L22.0674 24.1532C18.685 26.7296 14.8219 27.7262 10.5455 26.7648C7.3374 26.0738 4.50454 24.2062 2.6053 21.53C0.638179 18.8372 -0.265454 15.513 0.0677555 12.195C0.400965 8.87695 1.94755 5.79878 4.41082 3.55098C9.41117 -1.08006 17.1638 -1.19437 22.4162 3.28425C25.0794 5.57913 26.7502 8.81632 27.0781 12.3166C27.406 15.8168 26.3655 19.308 24.1748 22.0575L30.6905 28.5615C33.2281 26.4158 36.3231 25.035 39.615 24.5799C42.9069 24.1248 46.2604 24.6142 49.285 25.991C50.1496 24.4258 50.9996 22.8812 51.8702 21.3013C50.2949 20.0209 49.2412 18.2095 48.9069 16.2072C48.1653 11.8312 51.1139 7.72771 55.6307 6.88943C59.7664 6.1215 64.0193 9.02615 64.8722 13.1999C65.1674 14.5557 65.1098 15.9645 64.7049 17.2916C64.3001 18.6187 63.5616 19.8197 62.56 20.7799C61.5584 21.74 60.3272 22.4272 58.9841 22.7755C57.6411 23.1239 56.2312 23.122 54.8891 22.7698C54.4524 22.6643 54.1857 22.6584 53.9424 23.1244C53.2331 24.502 52.4622 25.8474 51.6767 27.2777C56.0967 30.3406 58.7346 34.5291 59.5172 40.0072L73.2638 39.5001C73.6477 38.187 74.2838 37.085 75.3771 36.276C76.2649 35.6172 77.3343 35.2483 78.4395 35.2193C79.5447 35.1904 80.632 35.503 81.5531 36.1145C82.4742 36.7259 83.1843 37.6065 83.5868 38.6362C83.9893 39.6659 84.0644 40.7947 83.802 41.8687C83.5397 42.9427 82.9526 43.9097 82.1207 44.6378C81.2888 45.366 80.2526 45.82 79.1533 45.9379C78.054 46.0558 76.9452 45.8319 75.9778 45.2967C75.0104 44.7614 74.2315 43.941 73.7474 42.947C73.4543 42.2993 73.1231 42.1762 72.4871 42.2025C68.2371 42.3931 63.9871 42.5455 59.6227 42.7155C59.3589 46.7075 58.037 50.2922 55.5193 53.2877L62.0526 59.8005C68.5008 54.7855 76.8689 56.6819 81.1248 62.0662C85.3807 67.4505 84.8531 75.3643 79.9378 80.0979C77.5345 82.4489 74.3419 83.8206 70.9823 83.9458C67.6227 84.071 64.3369 82.9406 61.7653 80.775C56.6536 76.4869 54.9653 68.3826 59.8983 61.9489L53.4793 55.5857C52.0401 56.4093 50.5746 57.4205 48.9743 58.1298C44.7741 59.9998 40.4567 60.0877 36.1246 58.5489C35.5384 58.3379 35.301 58.4493 35.0431 58.9974C34.2605 60.6534 33.4163 62.2772 32.5605 63.9801C35.172 65.9674 36.617 68.6024 36.5965 71.9262C36.5849 74.1799 35.7511 76.3519 34.2517 78.0345C32.7824 79.7197 30.7654 80.8323 28.5562 81.1762C26.347 81.5201 24.0873 81.0732 22.1753 79.9144C20.2632 78.7555 18.8215 76.959 18.1042 74.8414C17.3869 72.7238 17.44 70.4209 18.2541 68.3386C19.7196 64.4931 24.2598 61.0843 30.1307 62.7491L32.9738 57.0805C29.4939 54.9557 26.8366 51.7146 25.4351 47.8858ZM42.0131 56.9076C43.9688 56.9002 45.9039 56.5078 47.708 55.7526C49.512 54.9974 51.1497 53.8943 52.5274 52.5062C53.9052 51.1182 54.996 49.4723 55.7377 47.6627C56.4793 45.853 56.8573 43.915 56.85 41.9593C56.8427 40.0035 56.4502 38.0684 55.695 36.2644C54.9399 34.4603 53.8367 32.8227 52.4487 31.4449C51.0606 30.0672 49.4147 28.9764 47.6051 28.2347C45.7954 27.493 43.8574 27.1151 41.9017 27.1224C33.7358 27.1224 27.0941 33.8901 27.1293 42.1527C27.1615 50.2512 33.897 56.9281 42.0131 56.9076ZM27.1938 65.0382C25.8563 65.0256 24.5451 65.4096 23.4257 66.1416C22.3063 66.8736 21.429 67.9209 20.9044 69.1513C20.3798 70.3816 20.2315 71.7398 20.4783 73.0543C20.725 74.3689 21.3558 75.5808 22.2908 76.5371C23.2259 77.4935 24.4234 78.1513 25.732 78.4275C27.0407 78.7038 28.4019 78.5861 29.6437 78.0893C30.8855 77.5925 31.9522 76.7389 32.7093 75.6362C33.4663 74.5336 33.8796 73.2313 33.897 71.8939C33.9079 71.0034 33.743 70.1195 33.4118 69.2928C33.0807 68.4661 32.5897 67.7128 31.9671 67.076C31.3445 66.4392 30.6024 65.9314 29.7834 65.5818C28.9643 65.2321 28.0843 65.0474 27.1938 65.0382ZM21.8007 20.4865C24.9427 17.2624 25.8162 10.5415 21.2877 5.95443C20.2575 4.90469 19.0235 4.07668 17.6616 3.52128C16.2996 2.96588 14.8385 2.69482 13.368 2.72474C11.8975 2.75466 10.4486 3.08494 9.11036 3.69528C7.77214 4.30562 6.57285 5.18313 5.58617 6.27391C1.2541 11.0017 2.45875 17.6258 5.21099 20.3048C5.63013 19.0356 5.88513 17.5525 6.59151 16.3303C7.29789 15.1081 8.45565 14.1379 9.44341 13.0241C7.64375 10.3862 7.72875 7.66908 9.77462 5.64374C10.6773 4.75621 11.8617 4.2119 13.1231 4.10486C14.3845 3.99783 15.6437 4.33479 16.6831 5.05753C17.7178 5.76676 18.466 6.8215 18.7934 8.03253C19.3327 9.96702 18.7934 11.6846 17.5829 13.2058C20.5696 15.4656 21.0679 16.3332 21.7977 20.4865H21.8007ZM66.4403 70.1353C64.5117 66.8789 64.6817 64.1736 66.9357 62.2655C67.9077 61.4313 69.1439 60.9685 70.4247 60.9594C71.7056 60.9503 72.9483 61.3954 73.9321 62.2157C74.9482 63.0466 75.618 64.2264 75.8108 65.5248C76.0893 67.2394 75.5558 68.7489 74.4303 70.1031C77.1562 71.8001 78.5338 74.2358 78.6188 77.457C82.2357 73.4591 82.4291 66.4744 77.505 62.2157C76.3937 61.2656 75.1017 60.5501 73.7068 60.1122C72.3119 59.6742 70.8428 59.5228 69.3879 59.6671C67.933 59.8114 66.5222 60.2484 65.2405 60.9518C63.9588 61.6552 62.8326 62.6105 61.9295 63.7603C57.9931 68.7988 59.7722 75.1357 62.3134 77.3515C62.3896 74.1889 63.7848 71.7796 66.4374 70.1295L66.4403 70.1353ZM56.9174 20.3487C57.9881 20.3487 59.0347 20.0314 59.9251 19.4369C60.8156 18.8424 61.5098 17.9973 61.9202 17.0084C62.3306 16.0195 62.4387 14.9312 62.2309 13.8809C62.0231 12.8305 61.5087 11.8654 60.7526 11.1073C59.9966 10.3492 59.0328 9.83216 57.9831 9.62151C56.9333 9.41086 55.8447 9.51603 54.8547 9.92375C53.8647 10.3315 53.0177 11.0234 52.4208 11.9123C51.8239 12.8011 51.5037 13.8469 51.5008 14.9175C51.4993 15.63 51.6382 16.3357 51.9097 16.9944C52.1812 17.6531 52.5799 18.2518 53.083 18.7562C53.5861 19.2607 54.1837 19.661 54.8416 19.9342C55.4996 20.2075 56.205 20.3484 56.9174 20.3487ZM6.79375 47.452C5.99321 47.4567 5.21193 47.6981 4.54831 48.1458C3.88469 48.5936 3.36839 49.2277 3.06444 49.9683C2.76049 50.709 2.68247 51.5229 2.84021 52.3078C2.99795 53.0927 3.3844 53.8133 3.95089 54.379C4.51737 54.9447 5.23857 55.3301 6.02366 55.4867C6.80875 55.6433 7.62263 55.5641 8.36281 55.2591C9.10298 54.9541 9.73636 54.4369 10.1832 53.7726C10.63 53.1083 10.8703 52.3267 10.8738 51.5262C10.8741 50.9905 10.7688 50.4601 10.5639 49.9653C10.3589 49.4704 10.0583 49.0209 9.67926 48.6424C9.30024 48.2639 8.85026 47.9639 8.35511 47.7597C7.85997 47.5554 7.32938 47.4509 6.79375 47.452ZM18.77 18.9829C18.471 17.7877 17.767 16.7331 16.7777 15.9987C15.7884 15.2644 14.5752 14.8958 13.3446 14.9556C10.9998 15.0436 8.82203 16.811 8.43513 18.9829H18.77ZM75.6321 75.845C75.3331 74.6498 74.6291 73.5952 73.6398 72.8608C72.6505 72.1265 71.4373 71.7579 70.2067 71.8177C67.8619 71.9057 65.6841 73.6731 65.3002 75.845H75.6321ZM63.4536 78.6148C67.6596 82.4252 74.2105 81.8389 77.3731 78.6148H63.4536ZM6.62669 21.7234C10.7067 25.6158 17.6474 24.8918 20.4612 21.7234H6.62669ZM16.2991 9.4834C16.292 8.94705 16.1255 8.42493 15.821 7.98338C15.5164 7.54182 15.0875 7.20077 14.5887 7.00355C14.0899 6.80633 13.5437 6.76185 13.0195 6.87575C12.4954 6.98966 12.0169 7.25681 11.6449 7.64326C11.2729 8.02971 11.0242 8.51802 10.9304 9.04615C10.8365 9.57427 10.9018 10.1184 11.1179 10.6093C11.334 11.1002 11.6912 11.5159 12.144 11.8034C12.5969 12.0908 13.1249 12.2372 13.6612 12.2239C14.3705 12.201 15.0427 11.9014 15.534 11.3893C16.0254 10.8771 16.2968 10.1931 16.2903 9.4834H16.2991ZM73.1612 66.3807C73.1594 65.8454 72.9988 65.3228 72.6996 64.879C72.4004 64.4352 71.9762 64.0902 71.4807 63.8878C70.9852 63.6854 70.4408 63.6347 69.9164 63.7422C69.3921 63.8496 68.9114 64.1103 68.5355 64.4912C68.1595 64.8721 67.9051 65.3561 67.8045 65.8818C67.7039 66.4075 67.7617 66.9512 67.9706 67.444C68.1794 67.9369 68.5299 68.3565 68.9776 68.6499C69.4252 68.9433 69.95 69.0971 70.4852 69.0919C71.1976 69.0819 71.8774 68.7918 72.3777 68.2844C72.8779 67.7771 73.1583 67.0932 73.1583 66.3807H73.1612ZM78.5338 37.9496C77.998 37.9591 77.4771 38.1274 77.0371 38.4334C76.5971 38.7393 76.2579 39.169 76.0625 39.668C75.867 40.167 75.8242 40.7128 75.9394 41.2361C76.0546 41.7595 76.3227 42.2368 76.7095 42.6076C77.0964 42.9785 77.5847 43.226 78.1125 43.3189C78.6402 43.4118 79.1837 43.3459 79.674 43.1295C80.1642 42.9131 80.5792 42.556 80.8662 42.1034C81.1532 41.6509 81.2993 41.1233 81.286 40.5875C81.2661 39.8744 80.9655 39.1979 80.4496 38.705C79.9337 38.2122 79.2442 37.9428 78.5308 37.9555L78.5338 37.9496Z" fill="#67D7FC"/>
<path d="M38.7938 42.5522C36.5574 41.1423 35.3 39.2079 35.2766 36.608C35.2549 35.6884 35.4283 34.7745 35.7855 33.9268C36.1427 33.079 36.6755 32.3166 37.3488 31.6898C38.0105 31.053 38.7948 30.5575 39.654 30.2334C40.5132 29.9093 41.4294 29.7634 42.3468 29.8045C43.2642 29.8456 44.1636 30.073 44.9904 30.4726C45.8172 30.8723 46.554 31.436 47.156 32.1294C49.3573 34.612 49.8731 39.5391 45.3124 42.5698C45.5674 42.687 45.7814 42.7808 45.9895 42.8834C49.3778 44.5775 51.2273 47.3151 51.4969 51.0903C51.5878 52.3272 51.0543 52.8489 49.8028 52.8489C44.6148 52.8489 39.4269 52.8489 34.239 52.8489C33.0343 52.8489 32.5009 52.3301 32.5771 51.143C32.8145 47.4734 34.5585 44.7563 37.8178 43.0299C38.0933 42.8746 38.3952 42.7427 38.7938 42.5522ZM48.5923 50.1172C48.006 46.8168 44.8962 44.4867 41.4698 44.7358C38.4978 44.9498 35.5755 47.5848 35.5198 50.1172H48.5923ZM46.0774 36.608C46.0791 35.804 45.8419 35.0176 45.3958 34.3486C44.9496 33.6797 44.3148 33.1584 43.5718 32.851C42.8289 32.5436 42.0113 32.4639 41.2229 32.6221C40.4346 32.7802 39.711 33.1691 39.1441 33.7393C38.5772 34.3095 38.1926 35.0353 38.039 35.8246C37.8854 36.6138 37.9699 37.4309 38.2816 38.1721C38.5933 38.9132 39.1183 39.545 39.7898 39.9873C40.4613 40.4295 41.2491 40.6622 42.0531 40.6558C43.1207 40.6435 44.1407 40.2124 44.8934 39.4553C45.6461 38.6981 46.0713 37.6756 46.0774 36.608Z" fill="#67D7FC"/>
</svg>
