<svg width="88" height="87" viewBox="0 0 88 87" fill="none" xmlns="http://www.w3.org/2000/svg">
<path d="M78.8523 87.0004C76.6096 86.5294 75.0416 85.0677 73.4917 83.4996C68.3256 78.2636 63.0927 73.0762 57.884 67.8737C56.2826 66.2752 56.1306 65.2633 57.1517 63.3731L53.8302 60.0303C52.256 60.8782 50.691 61.8536 49.0257 62.6012C33.026 69.7669 14.428 59.5228 11.8693 42.1678C11.164 37.5261 11.7052 32.7805 13.4373 28.4168C13.5129 28.204 13.6012 27.996 13.7017 27.7938C13.8367 27.4997 14.0801 27.2691 14.381 27.1502C14.682 27.0312 15.0173 27.0331 15.3169 27.1555C15.6165 27.2778 15.8572 27.5111 15.9889 27.8068C16.1205 28.1024 16.1329 28.4374 16.0234 28.742C15.6101 30.0912 15.0814 31.4131 14.7593 32.7806C11.5107 46.6045 21.0285 60.3372 35.0894 62.1545C41.4265 62.9751 47.8309 61.2549 52.904 57.3695C57.9772 53.4841 61.3068 47.7492 62.1658 41.4172C63.9892 27.961 54.1614 15.4772 40.6323 14.2526C31.8894 13.4594 24.7481 16.6654 19.193 23.4391C18.3482 24.4693 17.7161 24.7154 17.0171 24.1958C16.3182 23.6762 16.3121 22.9164 17.2025 21.8498C24.3895 13.2315 33.5669 9.75807 44.4613 12.3685C55.2159 14.9454 61.9075 22.0929 64.3356 32.8809C65.9766 40.1499 64.4359 46.9813 60.303 53.2019C60.1784 53.3903 60.0568 53.5788 59.9839 53.6942L63.4209 57.1221C63.6816 56.965 63.9539 56.8278 64.2353 56.7118C64.7633 56.494 65.3446 56.4398 65.9038 56.5563C66.463 56.6728 66.9743 56.9546 67.3714 57.3652C69.0064 58.9718 70.6271 60.5925 72.2337 62.2274C72.8809 62.8838 72.9144 63.6375 72.3674 64.1723C71.8204 64.7071 71.1032 64.6798 70.4255 64.0082C69.8451 63.4308 69.3042 62.817 68.8119 62.2943L62.5426 68.5726L70.231 76.2762L76.485 70.0222C75.9988 69.5511 75.4397 69.0406 74.9109 68.5027C74.2849 67.8554 74.2575 67.0775 74.8137 66.5548C75.3698 66.0321 76.09 66.0959 76.7008 66.7037C79.5087 69.5015 82.3106 72.3054 85.1064 75.1153C86.1396 76.1516 86.6015 77.4826 87.0026 78.841V81.0503C86.9054 81.3359 86.799 81.6185 86.6987 81.9072C86.3926 82.9805 85.834 83.9649 85.0695 84.778C84.305 85.5912 83.3569 86.2094 82.3045 86.581C81.8912 86.7391 81.4658 86.8576 81.0434 86.9974L78.8523 87.0004ZM75.233 81.5152C75.8408 82.123 76.4091 82.8341 77.0898 83.4175C77.8215 84.0295 78.731 84.3896 79.6833 84.4443C80.6357 84.499 81.5804 84.2456 82.3774 83.7214C83.1637 83.2104 83.7733 82.4693 84.1229 81.5992C84.4726 80.7291 84.5454 79.7722 84.3314 78.8592C83.9516 77.1818 82.6114 76.2701 81.5691 75.1609L75.233 81.5152ZM66.8123 60.3008C66.5327 60.0607 66.2653 59.851 66.0222 59.617C65.2868 58.9029 65.2655 58.8968 64.5422 59.617C63.1018 61.0575 61.6523 62.4857 60.227 63.9383C58.8018 65.3909 58.6012 65.011 60.2969 66.6733C60.331 66.6965 60.3691 66.713 60.4094 66.7219L66.8123 60.3008ZM78.4786 72.1524L72.1455 78.37L73.2578 79.6189L79.6637 73.2373C79.2565 72.8514 78.8189 72.4533 78.4786 72.1311V72.1524ZM61.3271 59.0974L58.2882 56.0038C57.5528 56.7412 56.784 57.5151 55.9817 58.3255C56.0881 58.444 56.2491 58.6294 56.4223 58.8087L59.0115 61.41L61.3271 59.0974Z" fill="#CC48F4"/>
<path d="M39.4528 19.1998C39.4528 20.1449 39.4528 21.0232 39.4528 21.8862C39.4528 22.8586 38.9362 23.4512 38.1552 23.436C37.3742 23.4208 36.9183 22.8465 36.9062 21.9166C36.9062 21.0444 36.9062 20.1723 36.9062 19.3001C28.06 19.7043 19.9067 27.183 19.3232 36.8588C20.1984 36.8588 21.0706 36.8588 21.9397 36.8588C22.9091 36.8588 23.4986 37.3815 23.4743 38.1685C23.45 38.9556 22.8665 39.3841 21.9549 39.4023C21.0827 39.4023 20.2136 39.4023 19.3384 39.4023C19.6788 48.3579 27.2 56.5538 36.9123 57.1524C36.9123 56.2803 36.9123 55.4081 36.9123 54.539C36.9123 53.5696 37.435 52.977 38.219 53.0013C39.003 53.0256 39.4345 53.6091 39.4588 54.5208C39.4588 55.3929 39.4588 56.2621 39.4588 57.1372C48.2321 56.8334 56.6468 49.461 57.2302 39.3993C56.3581 39.3993 55.4859 39.3993 54.6168 39.3993C53.6383 39.3993 53.0487 38.8948 53.0578 38.1108C53.067 37.3268 53.6656 36.8649 54.6472 36.8527C55.4373 36.8527 56.2304 36.8527 57.0236 36.8345C57.0753 36.8345 57.1239 36.7919 57.2302 36.7463C56.9689 32.8329 55.4621 29.1058 52.9302 26.1102C52.0776 25.1649 51.1736 24.2671 50.2226 23.4208C49.551 22.7827 49.399 22.0746 49.867 21.4881C50.335 20.9016 51.1494 20.853 51.8818 21.4881C58.7497 27.4352 61.3783 34.9352 59.0718 43.672C56.7653 52.4087 50.7969 57.8271 41.8839 59.4377C29.8742 61.5862 18.6698 53.3113 16.8921 41.2864C15.1144 29.2616 23.8815 18.039 36.0371 16.7718C39.3612 16.4258 42.7204 16.8522 45.8527 18.0177C46.9649 18.4249 47.287 19.4703 46.5577 20.1905C46.0593 20.6858 45.5032 20.5795 44.9015 20.388C43.9078 20.0689 42.9019 19.7802 41.8839 19.5402C41.1181 19.3791 40.3249 19.3244 39.4528 19.1998Z" fill="#CC48F4"/>
<path d="M29.7213 46.7564L40.7828 42.6327C40.1599 41.8881 39.7162 41.3351 38.5523 41.5508C36.4646 41.9428 34.5045 39.9493 34.9056 37.8586C35.1244 36.7251 34.5349 36.2996 33.839 35.6706C33.4986 36.5822 33.1856 37.4179 32.8574 38.2567C32.5292 39.0954 31.8911 39.4722 31.1526 39.22C30.4142 38.9678 30.1528 38.2536 30.4658 37.3967C30.9855 35.9623 31.493 34.5188 32.0947 33.121C32.2949 32.6698 32.6524 32.3068 33.1005 32.0999C38.1451 30.1793 43.2048 28.3074 48.2615 26.4233C48.8298 26.2136 49.4771 26.1194 49.8022 26.6724C50.0683 27.1456 50.1382 27.7043 49.9967 28.2284C48.1734 33.2749 46.3045 38.3063 44.39 43.3225C44.1787 43.8027 43.7932 44.185 43.3112 44.3922C38.297 46.3006 33.2586 48.1543 28.2292 50.0263C27.6609 50.2359 27.1109 50.2694 26.649 49.8075C26.1871 49.3456 26.2327 48.7955 26.4454 48.2272C27.0532 46.6136 27.6336 44.9908 28.2414 43.365C28.5787 42.4746 29.2138 42.1312 29.9371 42.3987C30.6603 42.6661 30.9429 43.3498 30.6086 44.2949C30.3443 45.0638 30.0616 45.8296 29.7213 46.7564ZM35.7018 33.8199C36.3309 34.5796 36.811 35.1053 37.9597 34.8987C38.4541 34.8262 38.9586 34.8707 39.4326 35.0288C39.9065 35.1869 40.3368 35.4541 40.6886 35.8089C41.0404 36.1637 41.304 36.5962 41.4582 37.0715C41.6123 37.5468 41.6526 38.0516 41.576 38.5454C41.3633 39.6971 41.8799 40.1651 42.6578 40.7789L46.7664 29.7204L35.7018 33.8199ZM39.1996 38.4724V38.1169C38.8957 37.8738 38.6374 37.5091 38.3061 37.424C38.1953 37.3913 38.0779 37.3869 37.9649 37.4113C37.8519 37.4358 37.7468 37.4882 37.6594 37.5639C37.572 37.6395 37.5049 37.7359 37.4645 37.8442C37.424 37.9525 37.4114 38.0693 37.4279 38.1837C37.4707 38.3714 37.5595 38.5455 37.6863 38.6903C37.813 38.8351 37.9738 38.9461 38.1542 39.0133C38.4854 39.0468 38.8531 38.6639 39.1996 38.4663V38.4724Z" fill="#CC48F4"/>
<path d="M39.5221 71.8877C39.5221 72.8753 39.5221 73.866 39.5221 74.8536C39.5221 75.8413 39.0481 76.4338 38.2701 76.449C37.4922 76.4642 36.9908 75.8838 36.9816 74.8962C36.9654 72.8864 36.9654 70.8788 36.9816 68.8731C36.9816 67.8581 37.4466 67.2959 38.2306 67.2838C39.0147 67.2716 39.513 67.849 39.5252 68.9187C39.5313 69.9094 39.5221 70.8939 39.5221 71.8877Z" fill="#CC48F4"/>
<path d="M39.5176 4.53997C39.5176 5.58535 39.5328 6.63072 39.5176 7.6761C39.4994 8.62119 39.0162 9.16211 38.2504 9.16211C37.4846 9.16211 36.9923 8.62119 36.9832 7.67914C36.9649 5.61472 36.9649 3.55132 36.9832 1.48893C36.9832 0.549916 37.4907 -0.00012207 38.2473 -0.00012207C39.004 -0.00012207 39.4994 0.549916 39.5176 1.48589C39.5328 2.51911 39.5176 3.52194 39.5176 4.53997Z" fill="#CC48F4"/>
<path d="M4.60487 36.9617C5.6229 36.9617 6.64092 36.9617 7.64375 36.9617C8.60404 36.9617 9.14496 37.4206 9.16319 38.1773C9.18143 38.934 8.64051 39.4779 7.71669 39.4901C5.62594 39.5164 3.53417 39.5164 1.44139 39.4901C0.529729 39.4901 -0.0263855 38.9309 0.000964477 38.1742C0.0283144 37.4176 0.557078 36.9769 1.44747 36.9587C2.51412 36.9465 3.55949 36.9617 4.60487 36.9617Z" fill="#CC48F4"/>
<path d="M71.8806 36.9616C72.9259 36.9616 73.9713 36.9464 75.0167 36.9616C75.904 36.9616 76.4389 37.4448 76.4662 38.1771C76.4936 38.9095 75.9405 39.4839 75.0258 39.496C72.933 39.5224 70.8413 39.5224 68.7505 39.496C67.8236 39.496 67.2797 38.949 67.304 38.1863C67.3283 37.4235 67.8692 36.9707 68.8234 36.9707C69.8354 36.9494 70.8625 36.9616 71.8806 36.9616Z" fill="#CC48F4"/>
<path d="M18.1739 16.9511C17.9247 17.255 17.7089 17.7382 17.3655 17.8628C17.0221 17.9874 16.311 17.9904 16.0467 17.7443C14.3601 16.161 12.7252 14.517 11.1267 12.8395C10.6739 12.3624 10.756 11.7303 11.2148 11.2228C11.3179 11.1042 11.4434 11.0072 11.5841 10.9373C11.7248 10.8674 11.878 10.8261 12.0347 10.8156C12.1915 10.8052 12.3488 10.8258 12.4975 10.8764C12.6463 10.927 12.7835 11.0065 12.9014 11.1104C14.5637 12.721 16.1925 14.3711 17.8092 16.0273C17.9733 16.2096 18.0037 16.5317 18.1739 16.9511Z" fill="#CC48F4"/>
<path d="M65.8091 11.9794C65.6293 12.3763 65.4083 12.7532 65.1496 13.1038C63.691 14.602 62.208 16.0758 60.7189 17.5436C60.0777 18.1757 59.2967 18.197 58.7741 17.6469C58.2514 17.0969 58.3091 16.3767 58.9169 15.7628C60.4029 14.2434 61.8768 12.7239 63.4327 11.2926C63.6385 11.1446 63.8728 11.0412 64.1209 10.9889C64.3689 10.9365 64.6251 10.9365 64.8731 10.9887C65.2286 11.0617 65.4778 11.6026 65.8091 11.9794Z" fill="#CC48F4"/>
<path d="M18.2368 59.6109C18.0409 60.0001 17.8078 60.3696 17.5408 60.714C16.1004 62.1878 14.6387 63.6435 13.1709 65.093C12.5176 65.7372 11.7639 65.7828 11.2261 65.251C10.6882 64.7192 10.7307 63.9565 11.3719 63.3092C12.8427 61.8201 14.3288 60.3493 15.8026 58.8663C16.2493 58.4196 16.7994 58.2282 17.322 58.5624C17.6958 58.7721 17.9177 59.2219 18.2368 59.6109Z" fill="#CC48F4"/>
</svg>
