<svg width="89" height="90" viewBox="0 0 89 90" fill="none" xmlns="http://www.w3.org/2000/svg">
<path d="M88.9837 58.0798C88.5493 58.4771 88.18 58.9974 87.6735 59.2414C84.3654 60.9047 81.0225 62.4937 77.7074 64.1477C77.276 64.3672 76.9026 64.6856 76.6179 65.077C75.2003 67.1384 73.3398 68.8568 71.1726 70.1065C70.9092 70.2586 70.7102 70.5014 70.6127 70.7895C69.939 73.5075 68.4661 74.7596 65.5669 74.9827C65.0326 77.7704 63.3228 79.285 60.4166 79.4732C59.866 82.2609 58.1702 83.7849 55.3058 83.9219C54.6089 87.9223 50.6248 89.4974 47.5397 87.4066C46.0715 88.8004 44.3454 89.437 42.3243 88.7842C40.3032 88.1314 39.3252 86.6237 39.072 84.6026C35.6059 84.1566 34.7859 83.4411 33.8683 80.0308C30.2419 79.3756 29.1361 78.2141 28.9085 74.7573C28.1524 74.6354 27.434 74.343 26.8077 73.9023C26.1814 73.4616 25.6637 72.8841 25.2937 72.2135C25.1799 72.0137 24.8848 71.9046 24.6572 71.7838C21.4641 70.1119 18.6589 67.7863 16.4241 64.9585C16.1743 64.6807 15.8667 64.461 15.5228 64.315C10.8533 62.0167 6.1785 59.7222 1.49823 57.4317L1.10795 57.2412C0.115989 56.7463 -0.216214 56.0912 0.136896 55.3409C0.490007 54.5905 1.23804 54.4116 2.22768 54.8902C6.2327 56.8416 10.2122 58.8395 14.2474 60.7351C16.4474 61.7642 18.4568 62.9281 19.9436 64.9492C20.6661 65.9296 21.7394 66.6636 22.7035 67.4465C23.3725 67.9901 24.1298 68.4246 24.9708 68.9914C25.3471 67.2351 26.6388 66.3105 27.7957 65.2744C29.1756 64.0362 30.5393 62.7794 31.9169 61.5389C32.6695 60.8629 33.4455 60.8211 33.9844 61.4065C34.5234 61.9919 34.449 62.7469 33.6847 63.4485C31.8867 65.0863 30.0723 66.7008 28.2696 68.3433C27.5982 68.9519 27.2776 69.6999 27.5123 70.6059C27.5921 70.9791 27.7831 71.3194 28.0601 71.5819C28.3371 71.8444 28.6872 72.0168 29.0641 72.0765C29.5181 72.136 29.9798 72.0874 30.4115 71.9348C31.0596 71.7234 31.6218 71.7373 32.0586 72.2902C32.4953 72.8431 32.3908 73.403 32.0237 73.9768C31.3686 75.0036 31.4337 76.0676 32.1538 76.7505C32.9135 77.4707 34.0843 77.5357 35.0275 76.8458C35.6756 76.3812 36.3145 76.107 36.9719 76.7343C37.6294 77.3615 37.4365 78.0097 36.9859 78.6857C36.3888 79.5801 36.4771 80.6464 37.1415 81.3178C37.5032 81.6527 37.9641 81.8606 38.4546 81.9101C38.9451 81.9596 39.4383 81.8479 39.8595 81.5919C40.0066 81.4997 40.1464 81.3964 40.2777 81.2829C40.8701 80.7834 41.4973 80.7068 42.0781 81.2388C42.6589 81.7708 42.624 82.3841 42.2128 83.0392C41.4787 84.2007 41.5972 85.3065 42.4893 85.9802C43.4929 86.7375 44.7473 86.5215 45.7556 85.3553C44.1898 83.8197 43.0097 82.0635 43.8204 79.7404C44.6079 77.4916 46.3503 76.4555 48.6734 76.3649C49.2216 73.4889 51.1846 71.9626 53.7842 71.9046C54.9457 68.5941 55.9656 67.7044 58.6627 67.4489C59.3596 66.3129 59.7987 65.1792 60.5816 64.3708C62.4865 62.4077 65.3578 62.5355 67.2186 64.5357C68.1641 65.5532 69.0492 66.6265 70.0505 67.7741C70.6247 67.4144 71.1778 67.0219 71.7069 66.5986C72.4386 65.9458 73.261 65.3116 73.7582 64.5078C74.7943 62.805 76.3136 61.8572 78.0582 61.058C80.9249 59.7431 83.7335 58.3051 86.5677 56.9229C87.8454 56.3003 88.2613 56.4141 89 57.5711L88.9837 58.0798ZM58.9716 70.0623C57.7822 70.1042 57.1364 70.5548 56.7183 71.3052C56.5213 71.6311 56.4333 72.0114 56.4672 72.3907C56.501 72.77 56.6549 73.1286 56.9064 73.4146C57.6359 74.3113 58.3901 75.1863 59.1691 76.0397C60.0612 77.0177 61.1995 77.0711 62.1543 76.2232C63.0835 75.4101 63.1602 74.2857 62.3448 73.2984C61.6479 72.4528 60.9509 71.6002 60.1727 70.8266C59.7894 70.441 59.2388 70.2273 58.9716 70.0623ZM61.6432 67.9274C61.6873 68.0714 61.7036 68.4641 61.9034 68.708C62.7762 69.8207 63.7067 70.8869 64.6911 71.9022C65.4183 72.6247 66.5496 72.4644 67.3511 71.7094C68.1525 70.9544 68.3105 69.8858 67.6577 69.0541C66.8748 68.0575 66.0315 67.1027 65.1627 66.1804C64.9002 65.8832 64.5455 65.6826 64.1554 65.611C63.7653 65.5394 63.3625 65.6009 63.0115 65.7855C62.1984 66.1595 61.6595 66.7705 61.6432 67.9274ZM50.1392 85.7735C51.3496 85.72 51.9977 85.26 52.3903 84.5004C52.5777 84.1693 52.6561 83.7875 52.6144 83.4094C52.5727 83.0312 52.413 82.6757 52.158 82.3933C51.4053 81.4804 50.6387 80.5767 49.8349 79.7125C49.0311 78.8483 47.8789 78.8088 46.9729 79.5894C46.0668 80.3699 45.9228 81.5315 46.7243 82.5049C47.4375 83.3737 48.1553 84.2472 48.9498 85.0417C49.3262 85.4134 49.886 85.6132 50.1392 85.7735ZM53.7842 74.5343C52.5669 74.6133 51.9257 75.064 51.5377 75.8422C51.359 76.1793 51.2883 76.5632 51.3352 76.9418C51.3822 77.3204 51.5446 77.6754 51.8003 77.9585C52.4972 78.8065 53.2266 79.6358 53.9607 80.4559C54.8412 81.4409 56.0027 81.5408 56.9552 80.7347C57.9077 79.9285 57.9983 78.753 57.1596 77.7379C56.4975 76.8956 55.7918 76.0883 55.0456 75.3195C54.6437 74.9292 54.0699 74.7039 53.7842 74.5343Z" fill="#9060F4"/>
<path d="M44.9754 0C47.2079 0.464619 49.4404 0.929238 51.6752 1.39386C54.2561 1.91655 56.8441 2.39976 59.4227 2.93639C61.2928 3.32667 62.236 4.44641 62.2569 6.33741C62.2894 9.35743 62.2755 12.3775 62.2569 15.3789C62.2569 16.3732 61.7923 16.9098 61.0001 16.9331C60.1731 16.954 59.669 16.3987 59.6643 15.3673C59.6504 12.4704 59.6434 9.55954 59.6643 6.67426C59.6643 5.94713 59.4459 5.56382 58.6909 5.41979C54.1144 4.54862 49.5496 3.61474 44.9661 2.78307C44.2088 2.64601 43.3678 2.85276 42.5849 3.00144C38.4033 3.79362 34.2334 4.62761 30.0564 5.42443C29.3851 5.5522 29.0668 5.83097 29.0738 6.57204C29.1063 10.3401 29.0343 14.1082 29.1063 17.8739C29.1796 21.4316 30.3285 24.8837 32.4019 27.7756C34.4753 30.6676 37.3759 32.8638 40.7218 34.0752C41.1942 34.2132 41.6561 34.3848 42.104 34.5886C43.6187 35.4063 45.0335 35.1972 46.6364 34.6281C51.0828 33.0507 54.8044 30.5929 57.1414 26.4275C58.0498 24.8014 58.5887 22.9778 59.2206 21.2168C59.5412 20.3248 59.9663 19.8578 60.7051 19.9298C61.5902 20.0135 62.0246 20.7522 61.783 21.8208C61.0539 25.1464 59.4956 28.2335 57.2529 30.795C55.0982 33.2804 52.3603 35.1922 49.2847 36.3588C48.0419 36.835 46.806 37.3415 45.5329 37.7224C44.9196 37.906 44.16 38.0384 43.5862 37.8432C40.9355 36.9372 38.2221 36.1451 35.8595 34.5607C29.9705 30.6114 26.7437 25.1196 26.5068 18.011C26.3767 14.1314 26.4626 10.2449 26.4812 6.36064C26.4812 4.43247 27.4569 3.31738 29.3781 2.93872C34.0646 2.00948 38.7502 1.08876 43.4352 0.176555C43.5995 0.132198 43.7602 0.0755085 43.916 0.00696901L44.9754 0Z" fill="#9060F4"/>
<path d="M50.6592 46.6384C51.0262 47.0426 51.2074 47.2563 51.4026 47.4561C53.0496 49.1287 54.713 50.7851 56.3438 52.4717C58.1674 54.3603 58.2743 57.0946 56.6319 59.0112C54.9894 60.9277 52.3202 61.2344 50.1946 59.7639C47.8715 58.1493 45.5623 56.4906 43.1881 54.8087L38.8067 58.7882C38.5385 59.0519 38.2554 59.3001 37.9588 59.5315C37.3362 59.9776 36.6091 59.8986 36.177 59.3248C35.7449 58.751 35.7542 58.1168 36.2769 57.5964C36.9552 56.9227 37.6707 56.2978 38.3886 55.6543C39.2868 54.8366 40.1874 54.0188 41.0903 53.2011C42.4842 51.9397 43.5319 51.863 45.0396 52.934C47.2419 54.4858 49.4233 56.0655 51.6418 57.5941C53.11 58.607 54.9825 57.852 55.1079 56.1584C55.1363 55.5029 54.9165 54.8609 54.4923 54.3603C51.9113 51.6586 49.3513 48.922 46.5938 46.4084C42.6073 42.7774 37.8403 41.8086 32.5948 42.8285C30.3112 43.2768 27.9881 43.6346 25.665 43.9552C25.0707 44.0268 24.4682 43.9344 23.9227 43.688C16.3122 40.1492 8.71179 36.5933 1.12146 33.0204C0.475639 32.7184 -0.0517037 32.3397 0.0040506 31.5452C0.0760666 30.5486 1.04944 30.1119 2.11807 30.616C5.52528 32.2034 8.93249 33.7978 12.3397 35.3992C16.1101 37.1694 19.9037 38.8978 23.6392 40.7423C24.6645 41.26 25.8369 41.4085 26.9589 41.1628C29.4052 40.7098 31.863 40.2754 34.3325 40.0013C39.4921 39.4066 44.0523 40.8957 48.0596 44.1829C48.3082 44.3873 48.7566 44.5708 49.033 44.4872C53.4864 43.1328 57.8608 43.4534 62.1283 45.1632C63.5013 45.7138 64.5443 45.5558 65.8081 44.8008C72.6148 40.7029 79.4865 36.7536 86.3373 32.7579C86.5325 32.6321 86.7385 32.524 86.9529 32.435C87.6127 32.2026 88.1726 32.3746 88.528 32.9693C88.7044 33.2247 88.7745 33.5387 88.7233 33.8449C88.6722 34.151 88.5038 34.4253 88.2539 34.6094C87.9572 34.8408 87.6399 35.0445 87.306 35.218C80.2554 39.3299 73.1932 43.4232 66.1658 47.5676C64.8858 48.3226 63.6708 48.4666 62.2886 47.9347C59.6844 46.9334 57.0314 46.0994 54.188 46.262C53.0775 46.3247 51.974 46.4943 50.6592 46.6384Z" fill="#9060F4"/>
<path d="M57.0699 14.0464C57.0699 16.6659 57.0374 19.1443 56.4148 21.5835C55.2532 26.1693 52.2611 29.3984 47.9122 31.2871C44.4276 32.8017 44.3672 32.8482 40.8965 31.2871C35.249 28.7317 32.1221 24.3178 31.769 18.1198C31.5971 15.116 31.7156 12.096 31.7202 9.08292C31.7202 8.07934 32.0826 7.68906 33.0793 7.49857C36.6011 6.80164 40.1206 6.10471 43.647 5.45424C44.1568 5.35062 44.6813 5.34196 45.1942 5.42869C48.7183 6.09774 52.2355 6.80861 55.7573 7.49857C56.6215 7.66583 57.0722 8.15136 57.0699 9.05272C57.0699 10.7044 57.0699 12.3562 57.0699 14.0079V14.0464ZM34.3384 9.93085C34.3384 12.6698 34.2338 15.274 34.3616 17.8782C34.6171 23.1493 37.3073 26.778 42.065 29.0058C43.6912 29.7655 45.1222 29.7469 46.7414 29.0058C50.7859 27.1357 53.5341 24.1529 54.1637 19.7366C54.6028 16.6678 54.396 13.5038 54.4308 10.3815C54.4308 10.1794 54.0452 9.85419 53.7873 9.79147C52.663 9.51966 51.5293 9.28968 50.3863 9.10847C47.4221 8.64386 44.5019 7.44049 41.4354 8.53002C41.1568 8.60946 40.8726 8.6677 40.5852 8.70426L34.3384 9.93085Z" fill="#9060F4"/>
<path d="M42.1361 20.9073L46.845 15.1948C47.2306 14.7302 47.6023 14.24 48.0065 13.8009C48.5734 13.169 49.268 13.0854 49.865 13.5407C50.462 13.9961 50.5619 14.7743 50.0044 15.4596C47.7866 18.1699 45.5595 20.8717 43.3232 23.5649C42.7052 24.3083 42.0036 24.3292 41.2835 23.6903C40.6353 23.1142 39.9988 22.5288 39.3809 21.9109C38.7629 21.2929 38.7002 20.5286 39.1973 19.9804C39.6945 19.4321 40.4541 19.4159 41.1302 19.9804C41.4507 20.2615 41.7644 20.5681 42.1361 20.9073Z" fill="#9060F4"/>
</svg>
