<svg width="56" height="56" viewBox="0 0 56 56" fill="none" xmlns="http://www.w3.org/2000/svg">
<circle cx="28" cy="28" r="27.5" stroke="white"/>
<path d="M41.0453 22.6118C41.0305 21.5073 40.8238 20.4138 40.4342 19.3802C40.0964 18.5083 39.5804 17.7165 38.9192 17.0553C38.2581 16.3942 37.4663 15.8782 36.5944 15.5404C35.5741 15.1573 34.4961 14.9502 33.4065 14.9279C32.0036 14.8652 31.5588 14.8477 27.9975 14.8477C24.4363 14.8477 23.9798 14.8477 22.5871 14.9279C21.498 14.9504 20.4205 15.1575 19.4007 15.5404C18.5287 15.878 17.7367 16.3938 17.0755 17.055C16.4144 17.7162 15.8985 18.5082 15.5609 19.3802C15.1771 20.3997 14.9704 21.4774 14.9498 22.5666C14.8871 23.971 14.8682 24.4158 14.8682 27.977C14.8682 31.5383 14.8682 31.9933 14.9498 33.3874C14.9717 34.4783 15.1773 35.5545 15.5609 36.5768C15.899 37.4486 16.4153 38.2402 17.0767 38.9011C17.7381 39.562 18.5301 40.0777 19.4021 40.4152C20.4192 40.8136 21.4968 41.0355 22.5886 41.0714C23.993 41.1341 24.4377 41.1531 27.999 41.1531C31.5602 41.1531 32.0167 41.1531 33.4094 41.0714C34.499 41.0499 35.577 40.8433 36.5973 40.4604C37.469 40.1222 38.2606 39.606 38.9217 38.9449C39.5828 38.2838 40.0989 37.4922 40.4371 36.6206C40.8207 35.5997 41.0263 34.5235 41.0482 33.4312C41.1109 32.0283 41.1298 31.5835 41.1298 28.0208C41.1269 24.4595 41.1269 24.0074 41.0453 22.6118ZM27.9888 34.7116C24.2642 34.7116 21.2469 31.6943 21.2469 27.9697C21.2469 24.2452 24.2642 21.2279 27.9888 21.2279C29.7768 21.2279 31.4917 21.9382 32.756 23.2025C34.0204 24.4669 34.7307 26.1817 34.7307 27.9697C34.7307 29.7578 34.0204 31.4726 32.756 32.737C31.4917 34.0013 29.7768 34.7116 27.9888 34.7116ZM34.999 22.5506C34.7925 22.5508 34.588 22.5102 34.3972 22.4313C34.2063 22.3524 34.033 22.2366 33.8869 22.0905C33.7409 21.9445 33.6251 21.7711 33.5462 21.5803C33.4673 21.3895 33.4267 21.185 33.4269 20.9785C33.4269 20.7721 33.4676 20.5678 33.5465 20.3772C33.6255 20.1865 33.7412 20.0133 33.8872 19.8674C34.0331 19.7215 34.2063 19.6057 34.3969 19.5267C34.5876 19.4478 34.7919 19.4071 34.9983 19.4071C35.2046 19.4071 35.409 19.4478 35.5996 19.5267C35.7902 19.6057 35.9635 19.7215 36.1094 19.8674C36.2553 20.0133 36.371 20.1865 36.45 20.3772C36.529 20.5678 36.5696 20.7721 36.5696 20.9785C36.5696 21.8477 35.8667 22.5506 34.999 22.5506Z" fill="white"/>
<path d="M27.9907 32.3486C30.4094 32.3486 32.3701 30.3879 32.3701 27.9692C32.3701 25.5506 30.4094 23.5898 27.9907 23.5898C25.572 23.5898 23.6113 25.5506 23.6113 27.9692C23.6113 30.3879 25.572 32.3486 27.9907 32.3486Z" fill="white"/>
</svg>
