<svg width="109" height="109" viewBox="0 0 109 109" fill="none" xmlns="http://www.w3.org/2000/svg">
<path d="M74.0711 103.015C72.8398 102.698 71.5782 102.481 70.3822 102.031C69.1413 101.588 67.956 101.002 66.8498 100.285C64.9611 98.9902 63.3445 97.3375 62.0912 95.4208C60.3502 92.8371 59.5377 89.9481 59.2274 86.7891C58.8416 83.1195 59.6183 79.4214 61.4478 76.2171C61.9839 75.2544 62.2408 74.1613 62.1896 73.0606C62.1896 65.0471 62.1896 57.0327 62.1896 49.0175C62.1896 47.2665 62.6942 46.6912 64.2434 46.6887C66.1761 46.6887 68.1106 46.6887 70.0466 46.6887C71.4445 46.6887 71.9769 47.3043 71.9769 48.8838C71.9769 54.8889 71.9769 60.8923 71.9769 66.894V67.9841L75.1485 67.5602V66.5913C75.1485 57.6291 75.1813 48.6769 75.1182 39.7046C75.1056 38.0519 76.029 37.4186 77.167 37.4136C79.1249 37.4136 81.0829 37.3984 83.0434 37.4136C84.633 37.4262 85.0796 37.9485 85.0796 39.7273C85.0796 49.7526 85.0796 59.7771 85.0796 69.8007C85.0541 70.07 85.0977 70.3413 85.2063 70.589C85.3149 70.8367 85.4849 71.0526 85.7003 71.2162C89.1772 74.0623 91.4001 77.8142 92.0334 82.6738C92.5809 86.895 91.998 90.9346 89.9063 94.4771C87.0476 99.319 82.9677 102.14 77.7952 102.859C77.6229 102.897 77.4541 102.949 77.2906 103.015H74.0711ZM75.1232 99.4124C80.8331 99.3644 84.8045 96.7454 87.1763 92.2996C88.7156 89.4362 89.2711 86.1463 88.7573 82.9363C88.2435 79.7262 86.6889 76.774 84.3327 74.5341C84.2959 74.4952 84.2572 74.4582 84.2166 74.4231C80.8382 71.6729 77.1216 70.5425 72.9937 71.4736C69.0778 72.3567 65.9819 74.7183 64.0289 78.6141C61.1298 84.3921 62.1997 92.012 67.5866 96.43C70.0012 98.4157 72.6657 99.3443 75.1232 99.4124ZM81.6985 68.7183V41.0293H78.6127V66.836C78.5915 67.0359 78.5957 67.2377 78.6253 67.4365C78.6783 67.6207 78.7944 67.8806 78.9281 67.9235C79.8264 68.2111 80.7397 68.4483 81.6985 68.7183ZM65.5504 71.1557C66.4108 70.6283 67.2056 70.0757 68.0483 69.6418C68.5529 69.3894 68.6741 69.0286 68.6715 68.4483C68.6564 62.7031 68.6715 56.9579 68.6715 51.2127C68.6715 50.9099 68.6488 50.6071 68.6362 50.3321H65.5554L65.5504 71.1557Z" fill="#5F68F4"/>
<path d="M81.7325 18.3512C79.2674 18.3512 76.8048 18.3512 74.3397 18.3512C73.9398 18.3531 73.5407 18.3142 73.1487 18.2352C72.7652 18.1611 72.4191 17.9565 72.1693 17.6562C71.9195 17.3558 71.7815 16.9782 71.7787 16.5875C71.7723 16.1823 71.9085 15.7876 72.1635 15.4726C72.4186 15.1576 72.7762 14.9423 73.174 14.8642C73.482 14.8007 73.7956 14.7686 74.1101 14.7683C78.1841 14.7583 82.2607 14.754 86.3398 14.7557C87.7477 14.7557 88.4365 15.4572 88.439 16.8928C88.439 20.7432 88.4348 24.5926 88.4264 28.4413C88.4264 29.7836 87.7123 30.6289 86.6299 30.6238C85.3683 30.6238 84.6745 29.8391 84.672 28.4262C84.672 25.9913 84.672 23.5565 84.672 20.9879C83.8015 21.7449 83.0117 22.4311 82.2548 23.1351C81.1219 24.1847 80.0092 25.2571 78.8965 26.3244C76.0655 29.0368 73.2471 31.7592 70.4111 34.4691C68.3236 36.4624 66.2277 38.4464 64.1234 40.4212C63.6667 40.8501 63.1873 41.2538 62.6953 41.6374C61.9384 42.2328 60.8913 42.142 60.1142 41.385C58.5044 39.8384 56.9173 38.2639 55.3076 36.7172C54.591 36.0259 53.8441 35.3699 53.12 34.6987C52.247 35.4834 51.4017 36.2126 50.5968 36.9695C48.7751 38.7105 46.9812 40.4818 45.162 42.2253C43.0123 44.2791 40.8541 46.3245 38.6876 48.3615C36.6691 50.2657 34.6505 52.169 32.632 54.0714L26.1046 60.3036C24.0491 62.2414 21.9927 64.18 19.9355 66.1195C19.3552 66.6645 18.7606 67.196 18.1517 67.7141C17.7723 68.0524 17.2772 68.2314 16.7692 68.2141C16.2612 68.1967 15.7795 67.9842 15.4242 67.6207C14.7404 66.8638 14.7606 65.8899 15.6033 65.0976C18.0053 62.8268 20.4503 60.5786 22.87 58.3154C24.0003 57.2624 25.1215 56.2001 26.2333 55.1286C28.05 53.3801 29.8465 51.6114 31.6682 49.8679C33.7573 47.8721 35.8617 45.8964 37.9609 43.9132C40.0602 41.93 42.1165 39.9847 44.1931 38.0166C46.3798 35.9527 48.5607 33.8888 50.7356 31.8248C51.1065 31.4741 51.5102 31.1511 51.9139 30.8383C52.6961 30.2378 53.8744 30.3337 54.6742 31.0906C56.2361 32.549 57.7828 34.0629 59.3345 35.5263C60.0561 36.2101 60.8055 36.8686 61.5801 37.57C62.5111 36.7298 63.4321 35.935 64.3152 35.0948C67.1386 32.4152 69.9443 29.7155 72.7652 27.0334C74.8157 25.0821 76.8754 23.1418 78.9444 21.2125C79.8982 20.3193 80.8721 19.4463 81.8359 18.5657L81.7325 18.3512Z" fill="#5F68F4"/>
<path d="M56.3962 74.8246V90.3293C56.3962 91.9795 55.8487 92.7566 54.6603 92.7667C53.0682 92.7667 51.4761 92.7818 49.8839 92.7667C48.6224 92.7516 48.1985 92.141 48.1985 90.405C48.1985 80.0097 48.1985 69.616 48.1985 59.224C48.1985 57.5108 48.6451 56.88 49.894 56.8648C51.5089 56.8463 53.1228 56.8463 54.736 56.8648C55.7982 56.8648 56.3937 57.705 56.3937 59.1357C56.3987 64.3704 56.3996 69.6 56.3962 74.8246ZM53.4971 89.1586V60.5057H50.9739V89.1586H53.4971Z" fill="#5F68F4"/>
<path d="M34.8739 77.304C34.8739 72.8532 34.8991 68.4024 34.8739 63.9515C34.8588 62.4376 35.3003 61.5899 36.7234 61.5747C38.376 61.5596 40.0287 61.5747 41.6814 61.5747C43.0287 61.5747 43.5056 62.208 43.5056 63.9717C43.5056 72.9037 43.5056 81.8356 43.5056 90.7675C43.5056 92.5337 43.0439 93.1721 41.699 93.1898C40.0237 93.21 38.3483 93.2276 36.6729 93.1898C35.2423 93.1494 34.8638 92.3092 34.8764 90.8357C34.8941 86.3218 34.8739 81.8129 34.8739 77.304ZM40.5737 89.7406V65.2207H37.7705V89.7406H40.5737Z" fill="#5F68F4"/>
<path d="M23.2257 84.9371C23.2257 82.8344 23.2257 80.7318 23.2257 78.6292C23.2257 77.0144 23.695 76.3306 24.7976 76.323C26.4797 76.3113 28.1542 76.3113 29.8212 76.323C30.8683 76.323 31.3805 77.08 31.3805 78.5762C31.3805 82.8084 31.3805 87.0397 31.3805 91.2702C31.3805 92.8547 30.9061 93.5536 29.7909 93.5713C28.1088 93.5965 26.4343 93.5965 24.7673 93.5713C23.6849 93.5561 23.2282 92.8724 23.2232 91.3206C23.2131 89.1987 23.2257 87.0666 23.2257 84.9371ZM28.5722 89.943V80.1809H26.0238V89.943H28.5722Z" fill="#5F68F4"/>
<path d="M77.3399 83.5689H76.7117C74.2945 83.5689 71.8765 83.5689 69.4576 83.5689C69.2872 83.581 69.1164 83.5497 68.9614 83.4778C68.8064 83.4059 68.6722 83.2959 68.5713 83.1579C68.4704 83.02 68.4062 82.8587 68.3847 82.6892C68.3632 82.5197 68.3851 82.3475 68.4483 82.1887C68.5273 81.9883 68.6671 81.8176 68.8482 81.7008C69.0293 81.584 69.2424 81.527 69.4576 81.5378C70.3306 81.5378 71.2011 81.5378 72.0741 81.5378H77.3323C77.2894 81.4268 77.2642 81.3435 77.2264 81.2678C76.6713 80.1828 75.7932 79.5546 74.567 79.5293C72.8866 79.494 71.2061 79.5293 69.5207 79.5092C69.2929 79.5083 69.0683 79.4548 68.8647 79.3527C68.6755 79.247 68.5272 79.081 68.4435 78.8811C68.3598 78.6812 68.3455 78.4591 68.4029 78.2501C68.4592 78.0432 68.5787 77.8591 68.7447 77.7234C68.9107 77.5877 69.115 77.5072 69.3289 77.4932H81.5056C81.7733 77.4932 82.03 77.5995 82.2193 77.7888C82.4086 77.978 82.5149 78.2348 82.5149 78.5024C82.5149 78.7701 82.4086 79.0268 82.2193 79.2161C82.03 79.4054 81.7733 79.5117 81.5056 79.5117C80.6175 79.5117 79.7394 79.5117 78.8412 79.5117H78.6166L79.5199 81.5302C80.1002 81.5302 80.7563 81.5302 81.4148 81.5302C81.5804 81.5265 81.7455 81.5486 81.9043 81.5958C82.1267 81.6744 82.3145 81.8284 82.4351 82.031C82.5558 82.2337 82.6017 82.4722 82.5648 82.7052C82.5279 82.9381 82.4106 83.1508 82.2333 83.3063C82.0559 83.4618 81.8297 83.5502 81.5939 83.5563C80.9657 83.5563 80.3324 83.5563 79.7142 83.5563H79.4619C78.6393 86.3318 76.7924 87.669 73.911 87.6286L73.8378 87.7195C73.9283 87.7531 74.0133 87.7998 74.0901 87.8583C76.1086 89.8768 78.1271 91.8953 80.1457 93.9138C80.2862 94.031 80.3941 94.1824 80.4591 94.3534C80.524 94.5245 80.5438 94.7094 80.5166 94.8903C80.4927 95.0682 80.4196 95.236 80.3054 95.3747C80.1913 95.5133 80.0407 95.6173 79.8706 95.675C79.7026 95.7419 79.5192 95.7609 79.341 95.7297C79.1628 95.6985 78.9967 95.6184 78.8614 95.4983C78.8127 95.4581 78.7664 95.4151 78.7226 95.3697C76.0699 92.7187 73.4181 90.0677 70.7671 87.4167C70.6366 87.3061 70.5342 87.1661 70.4684 87.0082C70.4026 86.8502 70.3753 86.6789 70.3886 86.5084C70.4141 86.2537 70.5354 86.0182 70.7279 85.8496C70.9204 85.6809 71.1698 85.5917 71.4257 85.6C72.4097 85.6 73.3937 85.6 74.3752 85.6C74.9673 85.6158 75.551 85.4567 76.0532 85.1425C76.5553 84.8284 76.9538 84.3732 77.1986 83.8338C77.2693 83.7682 77.2945 83.6824 77.3399 83.5689Z" fill="#5F68F4"/>
</svg>
