<svg width="173" height="172" viewBox="0 0 173 172" fill="none" xmlns="http://www.w3.org/2000/svg">
<path d="M86.5 172C133.996 172 172.5 133.496 172.5 86C172.5 38.5035 133.996 0 86.5 0C39.0035 0 0.5 38.5035 0.5 86C0.5 133.496 39.0035 172 86.5 172Z" fill="#8000FF"/>
<path d="M126.2 141.136H47.4751C47.1118 141.136 46.7632 140.992 46.5058 140.735C46.2484 140.479 46.103 140.131 46.1016 139.768V89.9868C46.1016 89.8064 46.1371 89.6278 46.2061 89.4612C46.2751 89.2945 46.3763 89.1431 46.5039 89.0156C46.6314 88.888 46.7828 88.7869 46.9494 88.7178C47.1161 88.6488 47.2947 88.6133 47.4751 88.6133H126.2C126.564 88.6133 126.914 88.758 127.171 89.0156C127.429 89.2732 127.573 89.6225 127.573 89.9868V139.768C127.572 140.131 127.427 140.479 127.169 140.735C126.912 140.992 126.563 141.136 126.2 141.136V141.136ZM48.8318 138.394H124.826V91.3603H48.8318V138.394Z" stroke="white" stroke-width="3.94262" stroke-miterlimit="10"/>
<path d="M101.995 141.135H74.1626C73.7992 141.135 73.4507 140.991 73.1933 140.735C72.9359 140.478 72.7905 140.13 72.7891 139.767V101.075C72.7891 100.894 72.8246 100.716 72.8936 100.549C72.9626 100.382 73.0638 100.231 73.1913 100.103C73.3189 99.9759 73.4703 99.8747 73.6369 99.8057C73.8036 99.7367 73.9822 99.7012 74.1626 99.7012H101.995C102.176 99.7012 102.354 99.7367 102.521 99.8057C102.688 99.8747 102.839 99.9759 102.967 100.103C103.094 100.231 103.195 100.382 103.264 100.549C103.333 100.716 103.369 100.894 103.369 101.075V139.767C103.367 140.13 103.222 140.478 102.965 140.735C102.707 140.991 102.359 141.135 101.995 141.135V141.135ZM75.5361 138.394H100.622V102.448H75.5361V138.394Z" stroke="white" stroke-width="3.94262" stroke-miterlimit="10"/>
<path d="M122.126 61.2655H51.3071C51.1267 61.2655 50.9481 61.23 50.7815 61.161C50.6148 61.092 50.4634 60.9908 50.3359 60.8633C50.2083 60.7357 50.1072 60.5843 50.0381 60.4177C49.9691 60.251 49.9336 60.0724 49.9336 59.8921V38.3962C49.9351 38.0329 50.0804 37.685 50.3379 37.4286C50.5953 37.1723 50.9438 37.0283 51.3071 37.0283H122.126C122.489 37.0283 122.838 37.1723 123.095 37.4286C123.353 37.685 123.498 38.0329 123.5 38.3962V59.8921C123.5 60.2563 123.355 60.6057 123.097 60.8633C122.84 61.1208 122.49 61.2655 122.126 61.2655V61.2655ZM52.7085 58.5185H120.758V39.7697H52.7085V58.5185Z" stroke="white" stroke-width="3.94262" stroke-miterlimit="10"/>
<path d="M125.29 91.3598H124.855C118.825 91.2817 89.0825 91.3152 67.3466 91.3598H47.4644C42.1435 91.3598 38.4752 89.9137 36.5546 87.0607C33.7629 82.9011 35.9181 77.4797 35.9962 77.2508C36.0414 77.1389 36.1015 77.0338 36.1749 76.9381L50.4291 58.1558C50.6513 57.8655 50.9796 57.6754 51.3419 57.6273C51.7041 57.5791 52.0707 57.6768 52.361 57.8989C52.6512 58.1211 52.8413 58.4494 52.8895 58.8117C52.9376 59.174 52.8399 59.5405 52.6178 59.8308L38.4808 78.4512C38.2072 79.2328 37.0515 82.9178 38.8214 85.5476C40.2061 87.5911 43.1038 88.624 47.4476 88.624H67.3243C89.049 88.624 118.803 88.5626 124.833 88.624C129.729 88.6966 132.895 87.6134 134.274 85.4303C136.077 82.5717 134.38 78.3674 134.045 77.6137L120.126 60.3054C119.917 60.0201 119.827 59.6655 119.873 59.3152C119.919 58.9648 120.098 58.6458 120.374 58.4244C120.649 58.2029 120.999 58.0961 121.351 58.1262C121.703 58.1562 122.03 58.3208 122.264 58.5857L136.29 76.0057C136.354 76.0851 136.41 76.1712 136.457 76.2625C136.574 76.5138 139.422 82.4042 136.597 86.8708C134.743 89.8579 130.924 91.3598 125.29 91.3598Z" stroke="white" stroke-width="3.94262" stroke-miterlimit="10"/>
<path d="M47.6801 90.2437C47.4545 90.2418 47.2325 90.1863 47.0325 90.0818C46.7131 89.908 46.4753 89.6152 46.3708 89.267C46.2662 88.9188 46.3034 88.5434 46.4741 88.2225L61.4096 60.3896C61.4913 60.2244 61.6054 60.0773 61.7452 59.9571C61.885 59.8369 62.0475 59.7461 62.2231 59.69C62.3987 59.634 62.5838 59.6139 62.7674 59.6309C62.951 59.6479 63.1292 59.7016 63.2916 59.789C63.4539 59.8763 63.597 59.9955 63.7123 60.1393C63.8276 60.2831 63.9128 60.4487 63.9628 60.6261C64.0127 60.8036 64.0265 60.9893 64.0032 61.1721C63.9799 61.355 63.92 61.5313 63.8271 61.6905L48.9085 89.5178C48.7903 89.7401 48.6132 89.9255 48.3964 90.0536C48.1797 90.1817 47.9319 90.2474 47.6801 90.2437V90.2437Z" stroke="white" stroke-width="3.94262" stroke-miterlimit="10"/>
<path d="M67.1707 90.8014C67.0499 90.8007 66.9297 90.7838 66.8134 90.7511C66.4631 90.6568 66.1643 90.4278 65.9823 90.1139C65.8002 89.8001 65.7498 89.427 65.8419 89.0761L73.3124 61.2488C73.4165 60.9086 73.6486 60.6221 73.9597 60.4496C74.2709 60.2771 74.6368 60.2321 74.9805 60.324C75.3242 60.4158 75.6188 60.6375 75.8023 60.9423C75.9859 61.2471 76.044 61.6111 75.9644 61.9579L68.494 89.7908C68.4162 90.0818 68.2441 90.3389 68.0047 90.5218C67.7653 90.7046 67.472 90.8029 67.1707 90.8014V90.8014Z" stroke="white" stroke-width="3.94262" stroke-miterlimit="10"/>
<path d="M125.891 90.2445C126.117 90.2426 126.339 90.1871 126.539 90.0826C126.858 89.9088 127.096 89.616 127.2 89.2678C127.305 88.9197 127.268 88.5443 127.097 88.2233L112.161 60.3905C111.982 60.0829 111.69 59.857 111.347 59.7604C111.005 59.6639 110.638 59.7042 110.324 59.873C110.011 60.0417 109.775 60.3257 109.667 60.6649C109.558 61.0041 109.586 61.3722 109.744 61.6914L124.679 89.5187C124.796 89.7384 124.971 89.9222 125.184 90.0501C125.398 90.178 125.642 90.2452 125.891 90.2445V90.2445Z" stroke="white" stroke-width="3.94262" stroke-miterlimit="10"/>
<path d="M106.42 90.8013C106.541 90.8011 106.661 90.7842 106.778 90.7511C107.128 90.6568 107.427 90.4277 107.609 90.1139C107.791 89.8001 107.841 89.427 107.749 89.0761L100.279 61.2432C100.237 61.0634 100.16 60.8937 100.052 60.7443C99.9438 60.5949 99.8065 60.4688 99.6485 60.3736C99.4904 60.2785 99.3148 60.2161 99.1321 60.1903C98.9494 60.1645 98.7634 60.1757 98.5851 60.2234C98.4069 60.271 98.2401 60.3541 98.0946 60.4677C97.9492 60.5812 97.8281 60.7229 97.7387 60.8843C97.6492 61.0456 97.5932 61.2234 97.5739 61.4069C97.5547 61.5904 97.5725 61.7759 97.6266 61.9523L105.097 89.7852C105.174 90.0773 105.345 90.3356 105.585 90.5195C105.824 90.7035 106.118 90.8026 106.42 90.8013V90.8013Z" stroke="white" stroke-width="3.94262" stroke-miterlimit="10"/>
<path d="M86.8305 90.4562C86.6502 90.4562 86.4716 90.4207 86.3049 90.3517C86.1383 90.2827 85.9869 90.1815 85.8593 90.0539C85.7318 89.9264 85.6306 89.775 85.5616 89.6083C85.4926 89.4417 85.457 89.2631 85.457 89.0827V61.2498C85.4793 60.9014 85.6334 60.5746 85.888 60.3357C86.1426 60.0968 86.4786 59.9639 86.8277 59.9639C87.1769 59.9639 87.5129 60.0968 87.7675 60.3357C88.0221 60.5746 88.1762 60.9014 88.1984 61.2498V89.0827C88.1985 89.446 88.0545 89.7945 87.7981 90.052C87.5418 90.3094 87.1938 90.4548 86.8305 90.4562V90.4562Z" stroke="white" stroke-width="3.94262" stroke-miterlimit="10"/>
</svg>
