<svg width="171" height="170" viewBox="0 0 171 170" fill="none" xmlns="http://www.w3.org/2000/svg">
<circle cx="85.5" cy="85" r="85" fill="white"/>
<path d="M85.5 0C68.6886 0 52.2547 4.98516 38.2766 14.3251C24.2984 23.665 13.4037 36.9402 6.97028 52.4719C0.536831 68.0036 -1.14645 85.0943 2.13329 101.583C5.41303 118.071 13.5085 133.217 25.3959 145.104C37.2834 156.992 52.429 165.087 68.9174 168.367C85.4057 171.646 102.496 169.963 118.028 163.53C133.56 157.096 146.835 146.202 156.175 132.223C165.515 118.245 170.5 101.811 170.5 85C170.497 62.4574 161.541 40.839 145.601 24.899C129.661 8.959 108.043 0.00277259 85.5 0ZM131.749 130.998H38.9586C38.9586 130.998 30.7922 131.97 30.7922 123.835V49.9293H30.8863C30.8186 49.4794 30.7871 49.0248 30.7922 48.5699C30.8131 47.584 31.0114 46.61 31.3777 45.6944C33.3226 40.7799 39.5233 39.0546 39.7428 38.9814L39.9729 38.9187H127.807V42.5993H40.5375C39.6174 42.8921 35.8949 44.2514 34.7865 47.0642C34.1173 48.7372 34.5147 50.7867 35.9681 53.1498H131.749V76.9799H95.1513C95.0467 76.9799 84.904 77.8583 84.904 90.7301C84.904 103.602 96.0296 104.48 96.2178 104.491H131.707L131.749 130.998ZM42.2106 46.5518V44.1469H126.207V46.5518H42.2106ZM126.207 48.6431V51.0899H42.2106V48.6431H126.207ZM140.208 103.257H96.291C96.291 103.257 86.2006 102.609 86.2006 90.7092C86.2006 78.8098 95.3081 78.1615 95.3081 78.1615H140.271L140.208 103.257Z" fill="#8000FF"/>
</svg>
