<svg id="Layer_1" data-name="Layer 1" xmlns="http://www.w3.org/2000/svg" viewBox="0 0 432 432"><defs><style>.cls-1{fill:#8111e8;}</style></defs><path class="cls-1" d="M169.48,423.46c2.08-9.72,4.14-19.45,6.24-29.16q6-27.74,12-55.46c1.24-5.72,1.25-5.73-4.41-5.74H75.16c-1.33,0-2.66.06-4,0a17.63,17.63,0,0,1-17.11-16.86c-.1-1.49,0-3,0-4.48q0-92.22-.09-184.42a27.24,27.24,0,0,1,5.53-17Q92,65.87,124.11,21.12c3.36-4.68,7.29-6.55,13-6.55q110.88.18,221.78.09a26.4,26.4,0,0,1,5,.3,9.6,9.6,0,0,1,7.85,8.55,39.36,39.36,0,0,1,.07,4.48q0,110.66.09,221.3a16,16,0,0,1-5.85,13q-37,33.39-73.67,67.14a12.92,12.92,0,0,1-9.71,3.8c-12.46-.23-24.92,0-37.38-.16a8.23,8.23,0,0,0-7.46,3.64q-32,41.68-64.31,83.19c-1,1.29-2.05,2.54-3.08,3.81ZM233.85,308l1.05.57c1-1.1,1.95-2.18,2.86-3.31,12.39-15.4,24.83-30.75,37.09-46.26a8.43,8.43,0,0,1,7.48-3.6c24.92.14,49.83.08,74.75.07,1.33,0,2.66,0,4,0,2.39-.11,3.63-1.41,3.7-3.79,0-1.17,0-2.33,0-3.49V28.88c0-7-.23-7.22-7.31-7.24H138.72c-1.16,0-2.33-.07-3.48,0-3.06.26-3.77,1-4,3.92-.09,1,0,2,0,3V248.33c0,7,.12,7.12,7.35,7.12q52.56,0,105.13,0c1.9,0,3.89-.38,6.13.66C244.44,273.54,239.15,290.76,233.85,308Z"/></svg>