<svg id="Layer_1" data-name="Layer 1"
    xmlns="http://www.w3.org/2000/svg" viewBox="0 0 432 432">
    <defs>
        <style>.cls-1{fill:#3b39e2;}.cls-2,.cls-3{fill:#3b39e2;}.cls-3{stroke:#3b39e2;stroke-miterlimit:10;stroke-width:4px;fill-rule:evenodd;}</style>
    </defs>
    <path class="cls-1" d="M139.42,339.78l7,11.71a43.34,43.34,0,0,1,6.32,23.11c-.07,7.36-.08,14.72,0,22.08,0,2.07-.19,3-2.73,3-9.29,0-9.29.14-9.29-9.15,0-5.24-.07-10.48,0-15.72a32.09,32.09,0,0,0-4.94-17.72c-3.66-5.93-7-12.06-10.86-17.87-2.55-3.86-2.34-7.09,0-11,8.45-14.23,16.58-28.64,24.92-42.94,1.92-3.29,2.81-6.68,1.73-10.36-1.4-4.7-4.59-7.73-9.45-8.48-5.47-.84-9.78,1.25-12.58,6.09q-9.47,16.31-18.86,32.65c-2.43,4.2-4.91,8.37-7.29,12.6-1.31,2.33-3,4-5.82,4-3,0-4.66-2-5.92-4.43a43.44,43.44,0,0,1-4.84-20.13q.06-38,0-76v-3.54l-.6-.1q-7.87,17-15.73,34c-2.76,6-5.49,12-8.27,18a57,57,0,0,0-5.37,24.6c.07,33.8,0,67.61.12,101.41,0,3.58-1.09,4.21-4.3,4.11-7.77-.22-7.77-.07-7.77-8,0-32.18.08-64.36-.05-96.55a72.81,72.81,0,0,1,6.87-31.45c8.61-18.48,17.1-37,25.61-55.54,1.59-3.46,3.46-6.82,6.83-8.65,2.45-1.33,2.7-3,2.69-5.4q-.08-54.83,0-109.65c0-26.18,17.95-44.09,44.16-44.1q58.38,0,116.76,0c14.72,0,26.42,6.09,35.17,17.95,1.5,2,2.14,3.42-.89,4.65-2.4,1-4.48,3.4-6.85,3.61-2.68.25-3.3-3.4-5.08-5.13-6-5.8-13.08-9.09-21.45-9.1q-59.88-.07-119.75,0a29.72,29.72,0,0,0-30.07,30.2q-.09,107.22,0,214.43v3.22l.72.21c1-1.64,2-3.28,2.93-4.93,5.48-9.48,10.91-19,16.44-28.45,6.52-11.16,18.17-15.54,29.69-11.24,11.16,4.16,17,15.19,14.71,27.77a19.38,19.38,0,0,0,0,2.48c6.36-7.26,14.3-6.16,22-6.17,5.12,0,10.23-.06,15.35,0a17.95,17.95,0,1,1,0,35.89c-7.61.1-15.22.05-22.82,0-11.63,0-19-7.56-19-19.3a1.86,1.86,0,0,0-.64-1.54l-19,32.82H246.52c19.39,0,32-12.63,32-32.1,0-8.36.06-16.72,0-25.08,0-2,.37-2.73,2.59-2.76,9.43-.12,9.54-.2,9.4,9.35-.14,9,.81,18-.58,26.9-3.25,20.84-20.31,35.55-41.56,35.64-28.69.13-57.38,0-86.07,0Zm49.23-47.91c-3.73,0-7.46-.05-11.19,0-4.11.07-6.68,2.37-6.73,5.89s2.54,6,6.58,6.05q11.37.1,22.74,0c4,0,6.63-2.56,6.56-6.07s-2.66-5.8-6.77-5.87C196.11,291.83,192.38,291.87,188.65,291.87Z"/>
    <path class="cls-2" d="M307.62,70.24c47.71.05,87.89,34.12,95.23,80,8.61,53.8-27.08,102.91-81.1,110.74-27.81,4-52.83-3.45-74.61-21.28a6.25,6.25,0,0,0-5.71-1.59c-11.24,2.21-22.5,4.31-33.75,6.43-3,.58-6.05.88-8.16-2.05s-.91-5.6.7-8.31c6-10,11.85-20.17,17.89-30.19a5,5,0,0,0,.47-4.81C197.92,141.56,233.72,80.88,294,71.25A68.5,68.5,0,0,1,307.62,70.24Zm-91.36,160.4c9-1.67,17.41-2.92,25.64-4.84,4.72-1.11,8,.18,11.44,3.27,14.15,12.63,30.9,19.4,49.75,20.68,51.9,3.51,94.55-41.37,88.59-93.08a83.83,83.83,0,0,0-95.84-73.51c-53.41,8.07-85.45,64.29-65,114.34,1.47,3.61,1.36,6.49-.69,9.79C225.45,214.79,221.08,222.47,216.26,230.64Z"/>
    <path class="cls-2" d="M140.62,184.18a30,30,0,0,1-19.87-52.39,29.48,29.48,0,0,1,33.39-4.29c2.7,1.44,4,.94,5.88-1,6.62-6.83,6.65-6.72,13.24.19,1.35,1.41,1.59,2.38,0,3.5-6,4.15-6.68,8.52-4.07,15.89C175.8,164.81,160.68,184.19,140.62,184.18Zm7.76-46.05C140,134.28,130.93,136.79,126,144A17.92,17.92,0,0,0,151.2,168.7a17.36,17.36,0,0,0,5.69-21.79,2.17,2.17,0,0,0-.65.31q-5.46,5.4-10.88,10.81c-6.42,6.41-6.34,6.35-12.77,0-1.77-1.75-1.72-2.67,0-4.35C138,148.65,143.08,143.4,148.38,138.13Z"/>
    <path class="cls-1" d="M188.67,64.31c7.11,0,14.22.08,21.33,0,2.11,0,2.66.56,2.68,2.67.11,9.36.18,9.36-9,9.36-12,0-23.95-.07-35.92.06-2.44,0-3.09-.61-3.07-3,.06-9,0-9,9-9Z"/>
    <path class="cls-1" d="M194.5,148.15c-3.24,0-6.49-.08-9.73,0-1.59.06-2.37-.37-2.09-2.06a2.29,2.29,0,0,0,0-.37c-.34-9.58-.34-9.58,9.14-9.58,4.24,0,8.48.07,12.72,0,1.59,0,2.37.38,2.1,2.06a1.61,1.61,0,0,0,0,.38c.33,9.57.33,9.57-9.15,9.57Z"/>
    <path class="cls-1" d="M194.39,172.1c-2.87,0-5.76-.2-8.6.06s-3.2-.83-3.17-3.32c.11-8.71,0-8.72,8.57-8.72,4.24,0,8.48.1,12.72,0,2-.06,2.76.29,2.79,2.56.13,9.47.22,9.46-9.32,9.46Z"/>
    <path class="cls-1" d="M152.74,70.48c0,5.81,0,5.81-5.79,5.81-6.19,0-6.19,0-6.19-6.17,0-5.81,0-5.81,5.8-5.81C152.74,64.31,152.74,64.31,152.74,70.48Z"/>
    <path class="cls-3" d="M361.63,192.93l-5.69-54v0a11.39,11.39,0,0,0-11.33-10.16h-8.82v-1.21a24.88,24.88,0,0,0-24.88-24.88C297.17,102.69,286,115,286,128.78h-8.84A11.39,11.39,0,0,0,265.92,139l-5.72,54a68.15,68.15,0,0,0-.37,7.14,17.39,17.39,0,0,0,17.38,17.39h67.4A17.39,17.39,0,0,0,362,200.09,68.53,68.53,0,0,0,361.63,192.93Zm-67.79-65.36a17.08,17.08,0,1,1,34.15,0v1.21H293.84Zm50.77,82.09h-67.4a9.58,9.58,0,0,1-9.58-9.58,61.19,61.19,0,0,1,.33-6.34h0l-3.88-.41,3.88.4,5.72-54a3.58,3.58,0,0,1,3.54-3.21H286v2.33a3.91,3.91,0,0,0,7.81,0v-2.33H328v2.33a3.9,3.9,0,0,0,7.8,0v-2.33h8.82a3.59,3.59,0,0,1,3.57,3.2h0l5.68,54a60.86,60.86,0,0,1,.33,6.33A9.58,9.58,0,0,1,344.61,209.66Z"/>
</svg>