<svg id="Layer_1" data-name="Layer 1" xmlns="http://www.w3.org/2000/svg" xmlns:xlink="http://www.w3.org/1999/xlink" viewBox="0 0 432 432"><defs><style>.cls-1{fill:url(#linear-gradient);}.cls-2{fill:#3c14a0;}.cls-3{fill:url(#linear-gradient-2);}.cls-4{fill:#fff;}.cls-5{fill:none;stroke:#3c14a0;stroke-miterlimit:10;}.cls-6{fill:url(#linear-gradient-3);}</style><linearGradient id="linear-gradient" x1="227.32" y1="101.56" x2="220.29" y2="374.17" gradientUnits="userSpaceOnUse"><stop offset="0" stop-color="#f9f1ff"/><stop offset="0.98" stop-color="#ecccfb"/></linearGradient><linearGradient id="linear-gradient-2" x1="158.87" y1="219.48" x2="158.87" y2="80.54" gradientUnits="userSpaceOnUse"><stop offset="0" stop-color="#8111e8"/><stop offset="0.43" stop-color="#9a39f1"/><stop offset="0.79" stop-color="#aa53f7"/><stop offset="1" stop-color="#b05df9"/></linearGradient><linearGradient id="linear-gradient-3" x1="276.73" y1="382.28" x2="276.73" y2="231.92" xlink:href="#linear-gradient-2"/></defs><rect class="cls-1" x="87.61" y="95.57" width="272.71" height="272.71"/><rect class="cls-2" x="86.28" y="80.54" width="209.45" height="138.95" rx="1.15"/><rect class="cls-3" x="54.14" y="80.54" width="209.45" height="138.95" rx="1.15"/><rect class="cls-2" x="91.55" y="68.74" width="13.48" height="23.59" rx="0.83"/><rect class="cls-2" x="202.24" y="68.74" width="13.48" height="23.59" rx="0.83"/><circle class="cls-4" cx="158.87" cy="152.54" r="28.84"/><path class="cls-5" d="M95.61,219.48s-2.38,92.69,118.05,111.67"/><path class="cls-5" d="M145.39,219.48s-1.71,66.06,68.27,63.4"/><circle class="cls-2" cx="303.69" cy="307.1" r="75.18"/><circle class="cls-6" cx="276.73" cy="307.1" r="75.18"/><path class="cls-4" d="M280.67,297.61h-1.42q-19.23,0-38.46,0a5.15,5.15,0,1,1,.2-10.27h17.43c7,0,14,0,21,0,1,0,1.24-.2.77-1.15-2.75-5.57-7.16-8.86-13.4-9-8.53-.21-17.06-.07-25.6-.07a6.13,6.13,0,0,1-3.54-.9,5.12,5.12,0,0,1,2.5-9.37c.24,0,.48,0,.72,0h60.82c3.89,0,6.44,3.41,5.16,6.89a5.19,5.19,0,0,1-5.16,3.38c-4.61,0-9.22,0-13.83,0H287c-.12.48.21.65.38.9a24.78,24.78,0,0,1,3.69,8.4,1,1,0,0,0,1.19.94c3.25-.05,6.49-.05,9.74,0a5.14,5.14,0,0,1,3.29,9.13,5.16,5.16,0,0,1-3.33,1.14c-3.25,0-6.49,0-9.74,0-.68,0-.94.18-1.12.85-2.85,10.46-9.61,16.87-20.18,19.24a35.84,35.84,0,0,1-7.51.43,2.35,2.35,0,0,0,.82,1.05Q279.6,334.55,295,349.93a5.39,5.39,0,0,1,1.85,5.05,5.11,5.11,0,0,1-8.14,3.11,9.11,9.11,0,0,1-.79-.73L247.53,317a5.15,5.15,0,0,1-1.52-5.77,5,5,0,0,1,5.05-3.33c4.93,0,9.86.05,14.78,0A15.21,15.21,0,0,0,280.1,299C280.31,298.59,280.46,298.13,280.67,297.61Z"/></svg>