<svg id="Layer_1" data-name="Layer 1" xmlns="http://www.w3.org/2000/svg" xmlns:xlink="http://www.w3.org/1999/xlink" viewBox="0 0 432 432"><defs><style>.cls-1{fill:#3c14a0;}.cls-2{fill:url(#linear-gradient);}.cls-3{fill:url(#linear-gradient-2);}.cls-4{fill:url(#linear-gradient-3);}.cls-5{fill:url(#linear-gradient-4);}.cls-6{fill:#fff;}.cls-7{fill:url(#linear-gradient-5);}</style><linearGradient id="linear-gradient" x1="111.41" y1="392.17" x2="111.41" y2="332.53" gradientUnits="userSpaceOnUse"><stop offset="0" stop-color="#8111e8"/><stop offset="0.43" stop-color="#9a39f1"/><stop offset="0.79" stop-color="#aa53f7"/><stop offset="1" stop-color="#b05df9"/></linearGradient><linearGradient id="linear-gradient-2" x1="336.53" y1="392.17" x2="336.53" y2="332.51" xlink:href="#linear-gradient"/><linearGradient id="linear-gradient-3" x1="223.94" y1="247.02" x2="223.94" y2="8.98" xlink:href="#linear-gradient"/><linearGradient id="linear-gradient-4" x1="336.25" y1="332.46" x2="336.25" y2="266.57" xlink:href="#linear-gradient"/><linearGradient id="linear-gradient-5" x1="111.68" y1="332.46" x2="111.68" y2="266.57" xlink:href="#linear-gradient"/></defs><path class="cls-1" d="M309.23,238.11c7.76-2.27,15.6-4.19,23.72-4.49a81,81,0,0,1,38.3,8.08c22.23,11.64,36.52,29.51,42.41,54,.65,2.72.43,5.63,1.86,8.17v18.7c-1.28,1.64-1.09,3.69-1.48,5.56-3.32,15.95-10.44,29.84-22.34,41.12-1-.83-1.25-2.09-1.74-3.22-5-11.41-12.42-20.75-23.64-26.47-16.87-8.59-34.6-8.87-52.23-3.35-16.67,5.23-27.29,17.13-32.73,33.68a77.49,77.49,0,0,1-20-30.93c-2.3-6.33-3.1-13-4.45-19.48q0-6.6,0-13.19a12.35,12.35,0,0,0,.61-2.11,78.34,78.34,0,0,1,15.23-38.75c5.27-7.2,12-12.92,18.91-18.42A189.19,189.19,0,0,1,309.23,238.11Zm26.88,94.29c17.08,1.21,33.32-14.41,33.11-32.69s-14.87-33.15-33-33.14-32.93,15-32.94,33.24C303.26,319.57,320.55,333.47,336.11,332.4Z"/><path class="cls-2" d="M166.57,369.92c-12,12-26.55,18.81-43.17,21.49-.93.15-2-.29-2.7.76H101.24c-2.71-1.56-5.86-1.45-8.78-2.21a80.25,80.25,0,0,1-35.15-19.21,8.9,8.9,0,0,1-1.06-1.49c1-.88,1.22-2.12,1.72-3.26,5-11.4,12.42-20.74,23.66-26.44,16.87-8.54,34.59-8.85,52.22-3.34C150.57,341.44,161.1,353.41,166.57,369.92Z"/><path class="cls-3" d="M325.73,392.17c-3.71-1.72-7.83-1.79-11.67-3-12.38-3.93-23.59-9.8-32.7-19.26,5.44-16.56,16.06-28.46,32.73-33.69,17.63-5.52,35.36-5.24,52.23,3.35C377.54,345.29,385,354.63,390,366c.49,1.13.7,2.39,1.74,3.22-8.51,9.27-19.11,15.22-30.92,19.08-4.85,1.59-9.89,2.57-14.85,3.83Z"/><path class="cls-1" d="M77.19,241.21c6.66-2.36,13.21-5,20.26-6.26,20.54-3.63,39.51.35,57.15,11.25.52.32,1.1.55,1.65.82.85.72,1.66,1.48,2.54,2.15A78.21,78.21,0,0,1,187.7,290.7c1.48,5.09,2.23,10.4,3.31,15.61q0,6.58,0,13.18c-1.35,6.52-2.18,13.15-4.46,19.47a77.92,77.92,0,0,1-20,31c-5.46-16.52-16-28.49-32.71-33.71-17.63-5.51-35.35-5.2-52.22,3.34C70.39,345.26,63,354.6,58,366c-.5,1.14-.74,2.38-1.72,3.26a73.4,73.4,0,0,1-23.06-46.09c-3.92-34.93,11.58-64,42.49-80.88A17.35,17.35,0,0,0,77.19,241.21Zm34.24,91.19c16.87,1.13,33.25-13.73,33.22-32.59a33.24,33.24,0,0,0-32.94-33.24c-18-.14-32.83,14.94-33,33.14C78.51,318.68,95.41,333.5,111.43,332.4Z"/><path class="cls-4" d="M414.09,158.64c-7.47-34.3-39.74-59.6-74.95-56.9-2,.16-2.84-.23-2.9-2.53-.13-5.33.12-10.65-.67-16-3.41-23.28-14.31-42.19-32.9-56.49C283.84,12.22,262.44,6.78,238.89,9.77c-18.23,2.31-33.95,10-47.36,22.41-10.91,10.1-18.42,22.42-23.2,36.45A152.48,152.48,0,0,1,213,81.47a152.48,152.48,0,0,0-44.63-12.84c-22.45,1.5-39,12.27-49.87,31.87-.84,1.52-1.61,2.09-3.46,1.82A72.55,72.55,0,0,0,77.19,241.21c6.66-2.36,13.21-5,20.26-6.26,20.54-3.63,39.51.35,57.15,11.25.52.32,1.1.55,1.65.82l61,0,0-60.45c-12.67-4.12-19.77-13.67-19.58-26.33a26.35,26.35,0,1,1,36.18,25.29c-1,.41-2.12.7-3.19,1q0,30.22.05,60.44l61,0a189.19,189.19,0,0,1,17.57-8.91c7.76-2.27,15.6-4.19,23.72-4.49a81,81,0,0,1,38.3,8.08c6.9-3.91,13.92-7.58,19.87-13,13.07-11.92,21.21-26.4,23.66-44a3.11,3.11,0,0,1,.74-2.05V165.45C414.18,163.37,414.58,160.91,414.09,158.64Zm-198-75.7q5.31,2.55,10.49,5.48Q221.4,85.5,216.09,82.94Z"/><path class="cls-5" d="M336.11,332.4c-15.56,1.07-32.85-12.83-32.84-32.59,0-18.21,14.86-33.23,32.94-33.24s32.8,14.89,33,33.14S353.19,333.61,336.11,332.4Z"/><path class="cls-1" d="M191,319.49q0-6.6,0-13.18c2.23,0,4.47,0,6.7-.09,11.19-.31,19.46-8.54,19.55-19.74.09-13.16,0-26.33,0-39.5q0-30.22,0-60.45a31.91,31.91,0,0,0,13.41,0q0,30.22.05,60.44c0,13.42-.18,26.84,0,40.25a19.38,19.38,0,0,0,18.77,18.95c2.48.1,5,.09,7.45.12q0,6.6,0,13.19c-12.31.91-23.26-1.92-31.66-11.62-1-1.15-1.63-1.14-2.61,0C214.26,317.6,203.3,320.39,191,319.49Z"/><path class="cls-6" d="M230.66,186.54a31.91,31.91,0,0,1-13.41,0c-12.67-4.12-19.77-13.67-19.58-26.33a26.35,26.35,0,1,1,36.18,25.29C232.82,185.9,231.73,186.19,230.66,186.54Z"/><path class="cls-7" d="M111.43,332.4c-16,1.1-32.92-13.72-32.73-32.69.18-18.2,15-33.28,33-33.14a33.24,33.24,0,0,1,32.94,33.24C144.68,318.67,128.3,333.53,111.43,332.4Z"/></svg>