<svg id="Layer_1" data-name="Layer 1" xmlns="http://www.w3.org/2000/svg" xmlns:xlink="http://www.w3.org/1999/xlink" viewBox="0 0 432 432"><defs><style>.cls-1{fill:url(#linear-gradient);}.cls-2{fill:url(#linear-gradient-2);}.cls-3{fill:#3c14a0;}.cls-4{fill:#fff;}</style><linearGradient id="linear-gradient" x1="125.07" y1="148.38" x2="328.74" y2="148.38" gradientUnits="userSpaceOnUse"><stop offset="0" stop-color="#8111e8"/><stop offset="0.43" stop-color="#9a39f1"/><stop offset="0.79" stop-color="#aa53f7"/><stop offset="1" stop-color="#b05df9"/></linearGradient><linearGradient id="linear-gradient-2" x1="101.32" y1="310.09" x2="400.57" y2="310.09" xlink:href="#linear-gradient"/></defs><path class="cls-1" d="M226.91,232.18c-32.67,0-65.34-.05-98,.07-3.18,0-3.84-.88-3.84-3.92q.15-80,0-160.09c0-2.84.6-3.74,3.64-3.74q98.19.15,196.37,0c3,0,3.65.89,3.64,3.74q-.12,80,0,160.08c0,3-.64,4-3.83,3.93C292.24,232.13,259.58,232.18,226.91,232.18Zm54-96.53c-12.1-1.85-23.14-3.63-34.22-5.16a5,5,0,0,1-4.43-3.25c-3.72-8.15-7.59-16.23-11.41-24.34l-3.87-8.2c-1,2-1.68,3.27-2.3,4.59q-6.49,13.86-13,27.74c-.81,1.74-1.59,3.13-3.91,3.41-7,.87-14.06,1.89-21,3.13-4.28.76-8.73.81-13.21,2.48,1.15,1.25,2,2.17,2.82,3,7.15,7.3,14.27,14.63,21.5,21.86a5.12,5.12,0,0,1,1.64,5.22c-1.92,10.65-3.58,21.34-5.27,32-.16,1-.87,2.38.25,3.06.9.55,1.82-.51,2.67-1,8.84-4.85,17.73-9.62,26.45-14.67a5.94,5.94,0,0,1,6.82.06c7.64,4.43,15.42,8.64,23.17,12.89,1.93,1.06,3.74,2.41,5.95,2.89a5.38,5.38,0,0,0,.06-3.43c-1.18-7.37-1.69-14.95-3.78-22.05-2.76-9.38-.59-16.07,7-22.21C269.17,148.67,274.42,142.23,280.87,135.65Z"/><path class="cls-2" d="M101.32,304c13.09,0,26.18-.14,39.27.06a65.5,65.5,0,0,0,38-11.23c6.44-4.26,13.06-8.25,19.52-12.47,10.44-6.8,22.4-8.59,34.28-10.67,16.4-2.88,32.8-5.71,49.16-8.71,8-1.47,14,1.57,16,8.48a11.43,11.43,0,0,1-1.51,9.3,28.81,28.81,0,0,1-13.51,12.46c-13.6,5.85-27.22,11.66-40.92,17.3-3.09,1.27-2.76,2.2-.66,4.13,3.11,2.87,6.07,5.92,9,9,4,4.18,8.66,5.25,13.95,3.15,11.8-4.68,23.39-9.94,35.37-14.1,14.09-4.9,25-14.13,35.74-23.86,14.49-13.12,29.11-26.11,43.71-39.11,5.45-4.85,11.82-4.7,17.08.24,5.58,5.24,6.38,11.58,1.81,17.31-17.16,21.51-34.31,43-51.72,64.32C339.61,337.2,331,341.8,322,345.82c-18.4,8.28-36.72,16.7-55.11,25a55.8,55.8,0,0,1-22.79,5c-7,0-14-.33-20.94.08-14.53.86-28.47-1.68-42.19-6.18-9.11-3-18.36-5.77-28.11-5-10.9.85-21.77,2.1-32.65,3.2-6.3.63-12.6,1.3-18.9,1.95Z"/><path class="cls-3" d="M101.32,304v65.91c0,.5-.11,1-.12,1.49-.15,9.69-1,10.47-10.82,10.47-11.32,0-22.65-.07-34,.05-2.42,0-3.15-.62-3.15-3.1q.14-41.82,0-83.65c0-2.42.63-3.17,3.1-3.14,12.32.12,24.65,0,37,.06,5.87,0,7.82,1.95,7.86,7.81C101.21,301.21,101.28,302.58,101.32,304ZM77.05,357.88c6.73-.1,6.2.87,6.17-4.95,0-7.79,1-7-4.83-7-8,0-7.11-1-7.1,5.1C71.31,358.84,70.24,357.76,77.05,357.88Z"/><path class="cls-3" d="M113.35,50.62c-.55,1.81-2,2.7-3.11,3.83-4.84,4.91-4.86,4.89-9.73,0-3.35-3.34-6.64-6.73-10.05-10-1.48-1.43-1.52-2.42-.08-4,6.32-6.89,6.27-6.93,13-.25,2.82,2.82,5.64,5.63,8.44,8.46A24.89,24.89,0,0,1,113.35,50.62Z"/><path class="cls-3" d="M364.65,42.35a2.63,2.63,0,0,1-1.1,1.86c-4.39,4.41-8.83,8.76-13.17,13.22-1.49,1.53-2.49,1.35-4,0-6.78-6.28-6.82-6.24-.38-12.68q4.35-4.35,8.72-8.71c.6-.6,1.14-1.37,2.1-1.41S364.6,41.45,364.65,42.35Z"/><path class="cls-3" d="M220.92,34.42c0-1.24-.08-2.49,0-3.73.19-2.56-1.23-6.23.65-7.43,2.69-1.7,6.5-.47,9.83-.54,1.43,0,1.47,1.05,1.47,2.09,0,6.58,0,13.17,0,19.76,0,1.37-.47,2.13-1.93,2a6.26,6.26,0,0,0-.75,0c-9.3.45-9.3.45-9.3-8.84Z"/><path class="cls-3" d="M89.22,154.36c-3.23,0-6.53.41-9.68-.1-4.88-.79-1.52-4.79-2.12-7.23-.34-1.41-1.77-4.62,2.11-4.63,6.46,0,13-.44,19.38.14,4.89.44,1.52,4.75,2.12,7.18.34,1.41,1.77,4.61-2.11,4.63C95.69,154.37,92.46,154.36,89.22,154.36Z"/><path class="cls-3" d="M364.58,154.36c-3.24,0-6.56.47-9.68-.11-5-.93-1.42-5.05-2.14-7.61-.38-1.37-1.44-4.28,2.15-4.26,6.46,0,13-.49,19.37.18,5,.52,1.42,5,2.14,7.55.38,1.38,1.44,4.3-2.15,4.26C371,154.33,367.81,154.36,364.58,154.36Z"/><path class="cls-4" d="M280.87,135.65c-6.45,6.58-11.7,13-18,18.12-7.62,6.14-9.79,12.83-7,22.21,2.09,7.1,2.6,14.68,3.78,22.05a5.38,5.38,0,0,1-.06,3.43c-2.21-.48-4-1.83-5.95-2.89-7.75-4.25-15.53-8.46-23.17-12.89a5.94,5.94,0,0,0-6.82-.06c-8.72,5-17.61,9.82-26.45,14.67-.85.47-1.77,1.53-2.67,1-1.12-.68-.41-2-.25-3.06,1.69-10.69,3.35-21.38,5.27-32a5.12,5.12,0,0,0-1.64-5.22c-7.23-7.23-14.35-14.56-21.5-21.86-.86-.88-1.67-1.8-2.82-3,4.48-1.67,8.93-1.72,13.21-2.48,7-1.24,14-2.26,21-3.13,2.32-.28,3.1-1.67,3.91-3.41q6.45-13.89,13-27.74c.62-1.32,1.3-2.6,2.3-4.59l3.87,8.2c3.82,8.11,7.69,16.19,11.41,24.34a5,5,0,0,0,4.43,3.25C257.73,132,268.77,133.8,280.87,135.65Z"/><path class="cls-4" d="M77.05,357.88c-6.81-.12-5.74,1-5.76-6.85,0-6.11-.88-5.08,7.1-5.1,5.79,0,4.79-.79,4.83,7C83.25,358.75,83.78,357.78,77.05,357.88Z"/></svg>