<svg id="Layer_1" data-name="Layer 1" xmlns="http://www.w3.org/2000/svg" xmlns:xlink="http://www.w3.org/1999/xlink" viewBox="0 0 432 432"><defs><style>.cls-1{fill:url(#linear-gradient);}.cls-2{fill:#3c14a0;}.cls-3{fill:url(#linear-gradient-2);}.cls-4{fill:url(#linear-gradient-3);}</style><linearGradient id="linear-gradient" x1="215.89" y1="207.2" x2="215.89" y2="36.72" gradientUnits="userSpaceOnUse"><stop offset="0" stop-color="#8111e8"/><stop offset="0.43" stop-color="#9a39f1"/><stop offset="0.79" stop-color="#aa53f7"/><stop offset="1" stop-color="#b05df9"/></linearGradient><linearGradient id="linear-gradient-2" x1="375.57" y1="398.68" x2="375.57" y2="164.55" xlink:href="#linear-gradient"/><linearGradient id="linear-gradient-3" x1="162.7" y1="398.69" x2="162.7" y2="185.97" xlink:href="#linear-gradient"/></defs><path class="cls-1" d="M24.38,168.86c1.32-.68,1.11-2.09,1.46-3.2a31.71,31.71,0,0,1,43.74-19.22c2.07,1,3.37.91,5.25-.51q27.75-20.91,55.71-41.54c2.06-1.52,2.42-2.69,1.69-5.16a31.86,31.86,0,1,1,61.54-16.39,20.14,20.14,0,0,1,.72,8.14c-.43,2.55.34,3.66,2.65,4.78,13.87,6.71,27.65,13.6,41.41,20.52,1.85.93,2.76,1,4.1-1,11.42-16.68,32.58-19.44,47.72-6.21,1.81,1.57,2.82,1,4.42.09q24-14.36,48.14-28.56c1.95-1.15,2.29-2.11,1.77-4.36-2.95-12.84.64-23.84,10.8-32.1s22.05-9.69,34-3.9,18,15.9,17.93,29.15c-.12,23.15-24.87,38.33-45.62,28.08-2.3-1.13-3.85-1.2-6.06.14q-26,15.69-52.27,31.09a4.34,4.34,0,0,0-2.44,4.37,31.8,31.8,0,0,1-62,9.62,7,7,0,0,0-3.86-4.51Q211,126.4,187,114.36a3.34,3.34,0,0,0-4.25.43c-10.06,8-21.16,9.31-32.93,4.34a3.69,3.69,0,0,0-4.29.51Q117,141,88.31,162.3c-1.62,1.21-2,2.22-1.42,4.31a31.85,31.85,0,0,1-61.15,17.82c-.31-1-.09-2.3-1.36-2.85Z"/><path class="cls-2" d="M24.38,278.86c2.77-6.11,7.59-8.07,14.12-7.9,12.32.31,24.66.06,37,.1,8.86,0,12.67,3.89,12.68,12.77q0,51,0,102c0,9.13-3.75,12.83-12.93,12.84-12.21,0-24.42-.29-36.61.12-6.57.22-11.31-1.77-14.24-7.69Z"/><path class="cls-3" d="M343.68,281.45q0-51.8,0-103.61c0-9.55,3.76-13.27,13.38-13.28h37.41c9,0,13,3.95,13,13V385.88c0,8.88-3.87,12.78-12.69,12.79H356.26c-8.68,0-12.56-3.83-12.57-12.48Q343.66,333.82,343.68,281.45Z"/><path class="cls-4" d="M130.73,292.33V199.17c0-9.37,3.79-13.19,13.08-13.19H182c8.83,0,12.69,3.87,12.7,12.81q0,45.08,0,90.16,0,48.26,0,96.52c0,3.7-.31,7.26-3.11,10a10.51,10.51,0,0,1-7.73,3.16c-14.09,0-28.18.06-42.27,0-6.67-.05-10.79-4.53-10.83-11.66-.07-12,0-24,0-35.92Z"/><path class="cls-2" d="M301.12,313.66q0,35.91,0,71.8c0,9.39-3.77,13.21-13.05,13.21q-19.26,0-38.52,0c-8.46,0-12.36-4-12.36-12.76q0-60.39,0-120.78c0-8,0-15.95,0-23.93,0-8.68,3.93-12.64,12.47-12.66q19.64,0,39.26,0c8.09,0,12.18,4.1,12.19,12.2Q301.16,277.2,301.12,313.66Z"/></svg>