<svg id="Layer_1" data-name="Layer 1" xmlns="http://www.w3.org/2000/svg" xmlns:xlink="http://www.w3.org/1999/xlink" viewBox="0 0 432 432"><defs><style>.cls-1{fill:url(#linear-gradient);}.cls-2{fill:url(#linear-gradient-2);}.cls-3{fill:#f4f1f0;}.cls-4{fill:#3c14a0;}.cls-5{fill:#f6f1ef;}</style><linearGradient id="linear-gradient" x1="196.9" y1="151.25" x2="406.48" y2="151.25" gradientUnits="userSpaceOnUse"><stop offset="0" stop-color="#8111e8"/><stop offset="0.43" stop-color="#9a39f1"/><stop offset="0.79" stop-color="#aa53f7"/><stop offset="1" stop-color="#b05df9"/></linearGradient><linearGradient id="linear-gradient-2" x1="232.42" y1="412.9" x2="232.42" y2="276.67" xlink:href="#linear-gradient"/></defs><path class="cls-1" d="M227.37,30.61a34.56,34.56,0,0,0-14.54,6.16c-11.12,8-16,19.1-15.91,32.67.08,22.52,0,45,0,67.56,11.28,7,16.09,17,15.86,30.32-.38,21.5,0,43,0,64.52,8.34,5.35,17.54,6.92,27.34,6.79,18.55-.24,37.11-.07,55.67-.07,8.85,0,8.85,0,8.94,9h0c0,7,0,14,0,20.94,0,1.08-.53,2.51.45,3.17,1.26.84,1.89-.77,2.69-1.38,12.45-9.43,24.91-18.86,37.25-28.44a14.7,14.7,0,0,1,9.8-3.4c6.56.07,13.14.53,19.73-.5,19.3-3,31.76-19.14,31.8-37.49q.12-66.36,0-132.73A37.62,37.62,0,0,0,376.4,30.59M296.52,194.33c-7.7-.08-14.51-3.09-20.46-8-1.24-1-2.37-2.22-4-2.59-.75,8.35-.75,8.35-9.42,8.35-5.47,0-11,0-16.43,0-4.28,0-5.13-.87-5.14-4.94,0-20.17.05-40.34,0-60.5,0-3.55,1.32-4.93,4.85-4.85,7,.14,13.94,0,20.91,0,4.41,0,5,.62,5.07,4.91,0,1.61.1,3.23.16,4.84,4.86-2.44,7.28-7.33,10.89-11,4.78-4.88,9-10.3,13.56-15.4a39.4,39.4,0,0,0,10.49-26.05c.08-3.24,1.29-5.65,4.48-6.52,3.54-1,6,.69,7.62,3.81,6,11.64,5.88,23.4.75,35.26-.74,1.72-1.32,3.52-2.22,5.14-1.79,3.25-.32,3.7,2.63,3.67q15.13-.13,30.27,0c4.15,0,8.29.45,10.61,4.79a10.17,10.17,0,0,1,1.27,5c0,18.06,0,36.12,0,54.19,0,6.12-3.66,9.88-9.72,9.89C333.9,194.45,315.21,194.53,296.52,194.33Z"/><path class="cls-2" d="M291.08,298c-.09-11.27-8.69-20.73-19.26-21.11-10.21-.37-20.44,0-30.66,0h0l-28.52-.23-17.17.13c-12.58.1-21,8.41-21.85,21.62l.12,72.82c0,13.6,8.52,22.23,22,22.29,13.32.06,26.64,0,40,0q.06,9.68.1,19.33h.75c5.87-4.6,11.93-9,17.53-13.88a20.12,20.12,0,0,1,14.09-5.2c13.49-.11,22.74-8.73,22.85-21.05Q291.4,335.36,291.08,298ZM253.69,284.5a17.84,17.84,0,0,0-1.46-1.55A17.84,17.84,0,0,1,253.69,284.5Zm4.13,55c-4.55,8.88-12.76,13.6-20.77,18.67-3.54,2.23-6.2,2.12-9.69-.15-6-3.86-12.09-7.39-16.86-12.79-7-8-7.53-20.25-1-26.89,6-6.09,15.2-6,20.79.38,1.55,1.77,2.09,2.4,3.88.09,4.65-6,14.09-6.41,20-1.08a52.43,52.43,0,0,1,4.16,4.74h0A22.38,22.38,0,0,1,257.82,339.5Z"/><path class="cls-3" d="M272,131.6c4.86-2.44,7.28-7.33,10.89-11,4.78-4.88,9-10.3,13.56-15.4a39.4,39.4,0,0,0,10.49-26.05c.08-3.24,1.29-5.65,4.48-6.52,3.54-1,6,.69,7.62,3.81,6,11.64,5.88,23.4.75,35.26-.74,1.72-1.32,3.52-2.22,5.14-1.79,3.25-.32,3.7,2.63,3.67q15.13-.13,30.27,0c4.15,0,8.29.45,10.61,4.79a10.17,10.17,0,0,1,1.27,5c0,18.06,0,36.12,0,54.19,0,6.12-3.66,9.88-9.72,9.89-18.68.06-37.37.14-56.06-.06-7.7-.08-14.51-3.09-20.46-8-1.24-1-2.37-2.22-4-2.59Q272,157.68,272,131.6Z"/><path class="cls-4" d="M272,131.6q0,26.07,0,52.15c-.74,8.35-.74,8.35-9.42,8.35-5.47,0-11,0-16.43,0-4.28,0-5.13-.87-5.14-4.94,0-20.17.05-40.34,0-60.5,0-3.55,1.32-4.93,4.85-4.85,7,.14,13.94,0,20.91,0,4.41,0,5,.62,5.07,4.91C271.85,128.37,271.92,130,272,131.6Z"/><path class="cls-5" d="M257.82,339.5c-4.55,8.88-12.76,13.6-20.77,18.67-3.54,2.23-6.2,2.12-9.69-.15-6-3.86-12.09-7.39-16.86-12.79-7-8-7.53-20.25-1-26.89,6-6.08,15.2-6,20.79.38,1.55,1.77,2.09,2.4,3.88.09,4.65-6,14.09-6.41,20-1.08a52.43,52.43,0,0,1,4.16,4.74A22.38,22.38,0,0,1,257.82,339.5Z"/><path class="cls-3" d="M170.59,199.18c5.26,3.47,5.27,7.93,0,11.49-3.11.05-6.23,0-9.34.17-3.71.17-8.24-1.47-10.9.68s-1.43,6.8-2.39,10.24c-.73,2.61,0,3.31,2.58,3.27,6.73-.11,13.46,0,20.19,0,5.06,3.54,5,7.46,0,11.28-7.48,0-15,.08-22.44,0-2,0-2.8.46-3.09,2.62-.79,6-1.92,12-2.92,18-.58,3.5-3.37,5.74-6.48,5.21-3.73-.64-5.63-3.46-5-7.32.84-4.89,1.65-9.8,2.47-14.7.41-2.4.22-3.88-3-3.88-10.48,0-10.46-.16-11.94,10.32-.47,3.32-1,6.64-1.61,9.93-.77,4-3.42,6.19-6.56,5.6-4.23-.8-5.82-3.38-5-8,.88-4.89,1.69-9.8,2.61-14.68.41-2.2-.09-3.22-2.6-3.13-4.48.16-9,.07-13.47,0-3.67,0-6.1-2.25-6.18-5.53S87.94,225,91.82,225c5-.05,10-.18,15,.05,2.59.12,3.57-.91,3.88-3.23a82.83,82.83,0,0,1,1.38-8.46c.56-2.25-.37-2.56-2.23-2.55-5.73.06-11.47.05-17.2,0-4.57,0-7.06-2.12-7.09-5.87s2.41-5.89,7-5.94q9.54-.1,19.08,0c1.9,0,2.86-.36,3.16-2.56.76-5.66,1.92-11.26,2.81-16.91.72-4.54,3-6.61,6.82-6.08s5.44,3.39,4.66,7.78c-.84,4.77-1.56,9.56-2.43,14.33-.47,2.6.39,3.78,3.1,3.42a14.57,14.57,0,0,1,1.87,0c9,0,8.92,0,10-9.16.43-3.7,1-7.38,1.7-11.05.74-4,3.48-5.93,7.18-5.28,3.25.58,5.05,3.47,4.44,7.43-.76,4.91-1.45,9.85-2.55,14.69-.65,2.89.27,3.46,2.89,3.41C160.37,199,165.48,199.12,170.59,199.18ZM128.73,225c7.37,0,7.37,0,8.33-7.41,0-.12,0-.25,0-.37.86-6.38.86-6.38-5.66-6.38-7.56,0-7.56,0-8.55,7.59C122,225,122,225,128.73,225Z"/><path class="cls-4" d="M212.76,167.32C213,154,208.18,144,196.9,137c-3.68-1.45-7.38-3.07-11.37-3.1-13.38-.09-26.75,0-40.13.05-22.55,0-45.11-.14-67.66-.1-17.42,0-30.35,13.07-30.37,30.6q-.06,51.6,0,103.18c0,17.95,12.92,30.78,30.89,30.8,17.7,0,35.39.07,53.09-.06,3,0,3.81.92,3.72,3.81-.2,6.1-.1,12.21,0,18.31,0,1.5-.53,3.15.63,4.72,11.81-9,23.45-17.95,35.1-26.87h0l2.85.09c.88-13.21,9.27-21.52,21.85-21.62l17.17-.13q.06-22.41.13-44.83C212.73,210.33,212.38,188.82,212.76,167.32Zm-42,69q0,31,0,62l0-62c-7.48,0-15,.08-22.44,0-2,0-2.8.46-3.09,2.62-.79,6-1.92,12-2.92,18-.58,3.5-3.37,5.74-6.48,5.21-3.73-.64-5.63-3.46-5-7.32.84-4.89,1.65-9.8,2.47-14.7.41-2.4.22-3.88-3-3.88-10.48,0-10.46-.16-11.94,10.32-.47,3.32-1,6.64-1.61,9.93-.77,4-3.42,6.19-6.56,5.6-4.23-.8-5.82-3.38-5-8,.89-4.89,1.69-9.8,2.61-14.68.41-2.2-.09-3.22-2.6-3.13-4.48.16-9,.07-13.47,0-3.67,0-6.1-2.25-6.18-5.53S87.94,225,91.82,225c5-.05,10-.18,15,.05,2.59.12,3.57-.91,3.88-3.23a82.83,82.83,0,0,1,1.38-8.46c.56-2.25-.37-2.56-2.23-2.55-5.73.06-11.47.05-17.2,0-4.57,0-7.06-2.12-7.09-5.87s2.41-5.89,7-5.94q9.54-.1,19.08,0c1.89,0,2.86-.36,3.16-2.56.76-5.66,1.92-11.26,2.81-16.91.72-4.54,3-6.61,6.82-6.08s5.44,3.39,4.66,7.77c-.84,4.78-1.56,9.57-2.43,14.34-.47,2.6.39,3.78,3.1,3.42a14.57,14.57,0,0,1,1.87,0c9,0,8.92,0,10-9.16.43-3.7,1-7.38,1.7-11.05.74-4,3.48-5.93,7.18-5.28,3.25.58,5.05,3.47,4.44,7.43-.76,4.91-1.45,9.85-2.55,14.69-.65,2.89.27,3.46,2.89,3.41,5.11-.08,10.22.09,15.33.15,5.26,3.47,5.27,7.93,0,11.49h0c-3.11.05-6.23,0-9.34.17-3.71.17-8.24-1.47-10.9.68s-1.43,6.8-2.39,10.24c-.73,2.61,0,3.31,2.58,3.27,6.73-.11,13.46,0,20.19,0l0-1.81,0,1.81C175.83,228.55,175.82,232.47,170.73,236.29Z"/><path class="cls-4" d="M131.43,210.83c-7.56,0-7.56,0-8.55,7.59C122,225,122,225,128.73,225c7.37,0,7.37,0,8.33-7.41,0-.12,0-.25,0-.37C138,210.83,138,210.83,131.43,210.83Z"/></svg>